<svg xmlns="http://www.w3.org/2000/svg" width="20" height="20" fill="none" viewBox="0 0 20 20">
    <path fill="#373737" d="M12.083 10.834h-.833c-.23 0-.417.186-.417.416 0 .23.187.417.417.417h.417c0 .23.186.417.416.417.23 0 .417-.187.417-.417v-.077c.484-.172.833-.63.833-1.173 0-.69-.56-1.25-1.25-1.25-.23 0-.416-.187-.416-.417 0-.23.186-.416.416-.416h.834c.23 0 .416-.187.416-.417 0-.23-.186-.417-.416-.417H12.5c0-.23-.186-.417-.417-.417-.23 0-.416.187-.416.417v.077c-.484.173-.834.63-.834 1.173 0 .69.561 1.25 1.25 1.25.23 0 .417.187.417.417 0 .23-.187.417-.417.417z"/>
    <path fill="#373737" d="M18.29 14.664c.016-.079.043-.155.043-.237 0-1.44-1.086-3.301-1.373-3.766-.013-3.133-.57-5.417-2.859-6.198.105-.326.293-.76.468-1.161.337-.77.654-1.496.654-1.978 0-.66-.41-1.324-1.325-1.324-.612 0-.84.29-.964.537l-.02-.021C12.745.323 12.46 0 11.782 0c-.763 0-1.258.664-1.499 1.209-.31.015-.76.089-1.053.362-.186.173-.285.402-.285.66 0 .434.311.934.64 1.463.164.263.336.545.445.783-2.258.794-2.81 3.069-2.823 6.185-.137.223-.46.781-.76 1.453-.664.058-1.239.188-1.6.287-.126-.436-.482-.788-.954-.882l-3.394-.678c-.122-.024-.249.007-.345.086-.097.08-.153.197-.153.322v6.667c0 .23.186.416.417.416h2.61c.515 0 .953-.327 1.141-.787C5.101 17.991 9.416 20 11.25 20c1.616 0 4.943-1.635 7.144-2.717.574-.283 1.049-.516 1.357-.651.151-.067.249-.217.249-.382 0-.792-.676-1.384-1.71-1.586zm-14.23-1.86l-.62 4.338c-.03.204-.207.358-.413.358H.833v-5.742l2.895.58c.217.043.363.248.331.467zM9.796 2.182c.123-.115.512-.152.744-.139.194.024.371-.109.428-.294.074-.237.38-.915.812-.915.302 0 .38.089.51.235.13.147.327.37.7.37.464 0 .614-.355.67-.49.014-.03.033-.076.042-.086 0 0 .044-.029.196-.029.134 0 .49 0 .49.491 0 .308-.323 1.049-.583 1.644-.206.47-.399.92-.513 1.297-.369-.062-.767-.098-1.21-.098-.454 0-.862.037-1.238.102-.128-.323-.333-.662-.553-1.015-.217-.35-.515-.827-.495-1.073zm-1.824 8.826c.043-.067.066-.146.066-.226C8.04 6.513 9.098 5 12.083 5c2.986 0 4.045 1.513 4.045 5.781 0 .08.023.159.066.226.013.02 1.306 2.043 1.306 3.42 0 .054-.01.106-.03.158-.825.01-2.48.454-3.325.697-.113-1.196-1.645-1.619-3.229-1.94-.722-.147-1.26-.406-1.78-.657-.562-.271-1.105-.517-1.77-.577.308-.632.603-1.096.607-1.101zm10.053 5.528c-2.002.984-5.354 2.632-6.776 2.632-1.516 0-5.496-1.775-6.901-2.458-.002-.001-.004 0-.005-.002l.49-3.433c.303-.095 1.231-.357 2.25-.357.615 0 1.09.229 1.69.518.54.26 1.152.556 1.976.723 1.811.367 2.583.744 2.583 1.259 0 .101-.03.164-.11.223-.264.198-1.298.531-5.188-.623-.221-.066-.452.06-.518.281-.065.22.06.453.281.518 1.92.57 3.387.853 4.427.853.678 0 1.175-.12 1.497-.361.027-.021.048-.046.073-.069.026-.003.052 0 .078-.007.736-.227 2.824-.815 3.627-.815.68 0 1.395.206 1.605.594-.29.137-.659.317-1.08.524z"/>
</svg>
