<svg width="20" height="20" viewBox="0 0 20 20" fill="none" xmlns="http://www.w3.org/2000/svg">
<path d="M12.0833 10.8335H11.25C11.0197 10.8335 10.8333 11.0199 10.8333 11.2502C10.8333 11.4805 11.0197 11.6669 11.25 11.6669H11.6667C11.6667 11.8972 11.853 12.0836 12.0834 12.0836C12.3137 12.0836 12.5 11.8972 12.5 11.6669V11.5901C12.984 11.4176 13.3334 10.9594 13.3334 10.4169C13.3334 9.7276 12.7726 9.16689 12.0834 9.16689C11.8535 9.16689 11.6667 8.98014 11.6667 8.75021C11.6667 8.52029 11.8534 8.33353 12.0834 8.33353H12.9167C13.147 8.33353 13.3334 8.14717 13.3334 7.91686C13.3334 7.68654 13.147 7.50018 12.9167 7.50018H12.5C12.5 7.26986 12.3136 7.0835 12.0833 7.0835C11.853 7.0835 11.6666 7.26986 11.6666 7.50018V7.57693C11.1827 7.74951 10.8333 8.20768 10.8333 8.75018C10.8333 9.43947 11.394 10.0002 12.0833 10.0002C12.3132 10.0002 12.5 10.1869 12.5 10.4169C12.5 10.6468 12.3132 10.8335 12.0833 10.8335Z" fill="#7367F0"/>
<path d="M18.2909 14.664C18.3062 14.5852 18.3333 14.5085 18.3333 14.4271C18.3333 12.987 17.2465 11.1259 16.9604 10.6612C16.9471 7.52844 16.3905 5.24449 14.1014 4.4634C14.2058 4.13715 14.3943 3.70234 14.5695 3.3016C14.9056 2.53254 15.223 1.80625 15.223 1.32406C15.223 0.664883 14.8136 0 13.8985 0C13.2857 0 13.0579 0.289297 12.9338 0.5375C12.9272 0.530156 12.9207 0.522461 12.9146 0.515508C12.7441 0.322656 12.4589 0 11.7806 0C11.0177 0 10.5225 0.664453 10.2824 1.20891C9.97273 1.22438 9.5227 1.29801 9.22934 1.57063C9.04258 1.74437 8.94367 1.97305 8.94367 2.23184C8.94367 2.66477 9.25496 3.16484 9.58414 3.69383C9.74785 3.95695 9.91965 4.23883 10.0293 4.47742C7.77141 5.27051 7.21953 7.54551 7.20621 10.6616C7.06918 10.8848 6.74566 11.4434 6.44617 12.1146C5.78172 12.1728 5.2075 12.3029 4.84562 12.4025C4.72016 11.9662 4.36406 11.6144 3.89199 11.5202L0.498438 10.8415C0.376367 10.8175 0.249023 10.8488 0.152578 10.9277C0.0561719 11.0071 0 11.1251 0 11.25V17.9167C0 18.147 0.186367 18.3334 0.41668 18.3334H3.02734C3.5416 18.3334 3.97984 18.0059 4.16844 17.5464C5.10105 17.991 9.41621 20 11.25 20C12.8662 20 16.1926 18.3646 18.3936 17.2827C18.9681 17.0003 19.443 16.7668 19.751 16.6316C19.9023 16.565 20 16.4152 20 16.25C20 15.4577 19.3236 14.8655 18.2909 14.664ZM4.05926 12.8048L3.43953 17.1423C3.41066 17.3462 3.23324 17.5 3.02734 17.5H0.83332V11.7582L3.72844 12.3372C3.94531 12.3808 4.09059 12.5859 4.05926 12.8048ZM9.79656 2.18141C9.92027 2.06625 10.3089 2.02883 10.5412 2.04223C10.7349 2.06582 10.9123 1.93316 10.9689 1.74844C11.0425 1.51121 11.3489 0.83332 11.7806 0.83332C12.0834 0.83332 12.1611 0.921602 12.2901 1.0677C12.4207 1.21539 12.618 1.4384 12.9908 1.4384C13.4546 1.4384 13.6052 1.08277 13.6618 0.948906C13.6748 0.918398 13.6943 0.871992 13.7029 0.862227C13.7032 0.861836 13.7472 0.83332 13.8986 0.83332C14.0329 0.83332 14.3897 0.83332 14.3897 1.32406C14.3897 1.63207 14.0662 2.37266 13.8062 2.96793C13.6001 3.43883 13.4073 3.88707 13.293 4.26496C12.9241 4.2034 12.5261 4.16664 12.0834 4.16664C11.6294 4.16664 11.2211 4.20434 10.8446 4.26898C10.717 3.94602 10.5118 3.60727 10.2918 3.25355C10.0745 2.90445 9.77703 2.42676 9.79656 2.18141ZM7.97281 11.0067C8.01594 10.9395 8.03914 10.861 8.03914 10.7812C8.03914 6.51285 9.0975 5 12.0833 5C15.0691 5 16.1275 6.51285 16.1275 10.7812C16.1275 10.8614 16.1507 10.94 16.1938 11.0071C16.2068 11.0274 17.5 13.0501 17.5 14.4271C17.5 14.4807 17.4895 14.5326 17.4691 14.5846C16.6452 14.595 14.9899 15.0394 14.1451 15.2821C14.0317 14.0864 12.4996 13.6631 10.9163 13.3415C10.1937 13.195 9.65617 12.9358 9.13613 12.6852C8.5741 12.4137 8.03129 12.1679 7.36535 12.1083C7.67387 11.4763 7.96902 11.0124 7.97281 11.0067ZM18.0257 16.5348C16.0238 17.5191 12.6725 19.1667 11.25 19.1667C9.7343 19.1667 5.75437 17.3922 4.34895 16.7086C4.34727 16.7078 4.34543 16.7081 4.34375 16.7073L4.83426 13.2738C5.13734 13.1788 6.06523 12.9167 7.08332 12.9167C7.69855 12.9167 8.1734 13.1458 8.77441 13.4355C9.31398 13.6959 9.92594 13.9909 10.7503 14.1585C12.561 14.5255 13.3333 14.9019 13.3333 15.4166C13.3333 15.5184 13.3024 15.581 13.223 15.64C12.9594 15.8382 11.9246 16.1711 8.03504 15.0171C7.81367 14.9507 7.58258 15.0777 7.51707 15.2982C7.45156 15.5188 7.57769 15.7507 7.79824 15.8162C9.71719 16.3851 11.1849 16.6687 12.2249 16.6687C12.9032 16.6687 13.3996 16.5482 13.7215 16.3077C13.7493 16.287 13.7696 16.2616 13.7949 16.2393C13.8209 16.2364 13.8465 16.2396 13.8725 16.2316C14.6094 16.005 16.6968 15.4167 17.5 15.4167C18.1795 15.4167 18.8945 15.6234 19.1052 16.0107C18.8143 16.1475 18.4461 16.3285 18.0257 16.5348Z" fill="#7367F0"/>
</svg>
