<svg xmlns="http://www.w3.org/2000/svg" width="20" height="20" fill="none" viewBox="0 0 20 20">
    <g clip-path="url(#clip0)">
        <path fill="#7367F0" d="M19.5 8.66l-.002-.002L11.34.5c-.348-.348-.81-.54-1.302-.54S9.084.153 8.736.5L.582 8.654l-.008.009c-.714.718-.713 1.883.003 2.6.328.327.76.517 1.222.537.019.002.038.002.057.002h.325v6.004c0 1.188.967 2.155 2.155 2.155h3.192c.323 0 .586-.262.586-.586v-4.707c0-.542.44-.983.983-.983h1.883c.542 0 .983.44.983.983v4.707c0 .323.262.586.586.586h3.191c1.189 0 2.155-.967 2.155-2.155v-6.004h.302c.492 0 .954-.191 1.302-.54.717-.717.717-1.884.001-2.602zm-.83 1.774c-.126.127-.294.197-.473.197h-.887c-.324 0-.586.262-.586.585v6.59c0 .542-.441.983-.984.983h-2.606v-4.121c0-1.188-.966-2.155-2.155-2.155H9.098c-1.188 0-2.155.967-2.155 2.155v4.121H4.336c-.542 0-.983-.44-.983-.983v-6.59c0-.323-.263-.585-.586-.585h-.872l-.028-.002c-.174-.003-.338-.072-.46-.195-.262-.26-.262-.685 0-.947l8.158-8.158c.126-.127.294-.196.473-.196s.347.07.473.196l8.157 8.156.004.004c.259.261.259.685-.002.945z"/>
    </g>
    <defs>
        <clipPath id="clip0">
            <path fill="#fff" d="M0 0H20V20H0z"/>
        </clipPath>
    </defs>
</svg>
