<svg xmlns="http://www.w3.org/2000/svg" width="20" height="20" fill="none" viewBox="0 0 20 20">
    <path fill="#fff" d="M1.934 20c-.432 0-.782-.35-.782-.781 0-3.92 3.19-7.11 7.11-7.11h1.172c.802 0 1.59.133 2.34.395.408.142.624.588.481.995-.142.407-.587.623-.995.48-.585-.204-1.2-.307-1.826-.307H8.262c-3.059 0-5.547 2.488-5.547 5.547 0 .431-.35.781-.781.781zM14.043 5.273C14.043 2.366 11.677 0 8.77 0 5.862 0 3.496 2.366 3.496 5.273c0 2.908 2.366 5.274 5.274 5.274 2.907 0 5.273-2.366 5.273-5.274zm-1.563 0c0 2.047-1.664 3.711-3.71 3.711-2.047 0-3.711-1.664-3.711-3.71 0-2.047 1.664-3.712 3.71-3.712 2.047 0 3.711 1.665 3.711 3.711zm5.586 10.04h-2.343v-2.344c0-.432-.35-.781-.782-.781-.431 0-.78.35-.78.78v2.345h-2.345c-.431 0-.78.35-.78.78 0 .432.349.782.78.782h2.344v2.344c0 .431.35.781.781.781.432 0 .782-.35.782-.781v-2.344h2.343c.432 0 .782-.35.782-.781 0-.432-.35-.782-.782-.782z"/>
</svg>
