<svg xmlns="http://www.w3.org/2000/svg" width="21" height="20" fill="none" viewBox="0 0 21 20">
    <g fill="#373737" clip-path="url(#clip0)">
        <path d="M.5 4.938v10.124c0 1.395 1.138 2.534 2.533 2.534h8.183c1.395 0 2.533-1.139 2.533-2.534v-1.64c0-.277-.224-.501-.502-.501-.277 0-.501.224-.501.502v1.64c0 .844-.69 1.533-1.534 1.533H3.033c-.844 0-1.534-.69-1.534-1.534V4.938c0-.844.69-1.534 1.534-1.534h8.183c.844 0 1.534.69 1.534 1.534v1.64c0 .277.224.501.501.501.278 0 .502-.224.502-.501v-1.64c0-1.395-1.138-2.533-2.533-2.533H3.033C1.638 2.405.5 3.539.5 4.938z"/>
        <path d="M16.221 13.774c.098.097.224.146.355.146.13 0 .257-.049.355-.146l3.422-3.423c.196-.196.196-.51 0-.706l-3.422-3.422c-.196-.196-.51-.196-.706 0-.196.196-.196.51 0 .706l2.57 2.57H9.417c-.277 0-.502.224-.502.501 0 .278.225.502.502.502h9.374l-2.57 2.57c-.196.192-.196.51 0 .702z"/>
    </g>
    <defs>
        <clipPath id="clip0">
            <path fill="#fff" d="M0 0H20V20H0z" transform="translate(.5)"/>
        </clipPath>
    </defs>
</svg>
