<svg xmlns="http://www.w3.org/2000/svg" width="20" height="20" fill="none" viewBox="0 0 20 20">
    <path fill="#373737" d="M10 3.478c-1.678 0-3.043 1.365-3.043 3.044C6.957 8.2 8.322 9.565 10 9.565c1.678 0 3.043-1.365 3.043-3.043 0-1.679-1.365-3.044-3.043-3.044zm0 5.217c-1.198 0-2.174-.975-2.174-2.173 0-1.199.976-2.174 2.174-2.174s2.174.975 2.174 2.174c0 1.198-.976 2.173-2.174 2.173zM10 10.435c-3.116 0-5.652 2.535-5.652 5.652 0 .24.195.434.435.434s.434-.194.434-.434c0-2.638 2.146-4.783 4.783-4.783 2.637 0 4.783 2.145 4.783 4.783 0 .24.194.434.434.434s.435-.194.435-.434c0-3.117-2.535-5.652-5.652-5.652z"/>
</svg>
