<svg width="20" height="20" viewBox="0 0 20 20" fill="none" xmlns="http://www.w3.org/2000/svg">
<g clip-path="url(#clip0)">
<path d="M9.99996 3.47803C8.32172 3.47803 6.95648 4.84323 6.95648 6.52152C6.95648 8.1998 8.32168 9.56501 9.99996 9.56501C11.6782 9.56501 13.0434 8.19976 13.0434 6.52152C13.0434 4.84327 11.6782 3.47803 9.99996 3.47803ZM9.99996 8.69541C8.80172 8.69541 7.82607 7.71976 7.82607 6.52152C7.82607 5.32327 8.80172 4.34762 9.99996 4.34762C11.1982 4.34762 12.1739 5.32327 12.1739 6.52152C12.1739 7.71976 11.1982 8.69541 9.99996 8.69541Z" fill="#7367F0"/>
<path d="M16.087 6.95654C14.8887 6.95654 13.9131 7.9322 13.9131 9.13045C13.9131 10.3287 14.8887 11.3044 16.087 11.3044C17.2852 11.3044 18.2609 10.3287 18.2609 9.13045C18.2609 7.9322 17.2852 6.95654 16.087 6.95654ZM16.087 10.4348C15.3678 10.4348 14.7826 9.84959 14.7826 9.13045C14.7826 8.4113 15.3678 7.8261 16.087 7.8261C16.8061 7.8261 17.3913 8.4113 17.3913 9.13045C17.3913 9.84959 16.8061 10.4348 16.087 10.4348Z" fill="#7367F0"/>
<path d="M3.97493 6.95654C2.77578 6.95654 1.80103 7.9322 1.80103 9.13045C1.80103 10.3287 2.77668 11.3044 3.97493 11.3044C5.17318 11.3044 6.14883 10.3287 6.14883 9.13045C6.14883 7.9322 5.17403 6.95654 3.97493 6.95654ZM3.97493 10.4348C3.25578 10.4348 2.67058 9.84959 2.67058 9.13045C2.67058 8.4113 3.25578 7.8261 3.97493 7.8261C4.69407 7.8261 5.27928 8.4113 5.27928 9.13045C5.27928 9.84959 4.69403 10.4348 3.97493 10.4348Z" fill="#7367F0"/>
<path d="M9.99996 10.4346C6.88343 10.4346 4.34778 12.9702 4.34778 16.0867C4.34778 16.3267 4.54257 16.5215 4.78257 16.5215C5.02257 16.5215 5.21737 16.3267 5.21737 16.0867C5.21737 13.4494 7.36257 11.3042 9.99996 11.3042C12.6374 11.3042 14.7826 13.4494 14.7826 16.0867C14.7826 16.3267 14.9773 16.5215 15.2173 16.5215C15.4573 16.5215 15.6521 16.3267 15.6521 16.0867C15.6521 12.9702 13.1165 10.4346 9.99996 10.4346Z" fill="#7367F0"/>
<path d="M16.0871 12.1738C15.3714 12.1738 14.6706 12.3695 14.0601 12.7391C13.8558 12.8643 13.7897 13.1312 13.914 13.3364C14.0401 13.5417 14.3062 13.6069 14.5114 13.4825C14.9853 13.1947 15.5297 13.0434 16.0871 13.0434C17.7653 13.0434 19.1306 14.4086 19.1306 16.0869C19.1306 16.3269 19.3254 16.5217 19.5654 16.5217C19.8054 16.5217 20.0002 16.3269 20.0002 16.0869C20.0001 13.9295 18.2445 12.1738 16.0871 12.1738Z" fill="#7367F0"/>
<path d="M5.93914 12.7382C5.32956 12.3695 4.62872 12.1738 3.91304 12.1738C1.75565 12.1738 0 13.9295 0 16.0869C0 16.3269 0.194796 16.5217 0.434796 16.5217C0.674796 16.5217 0.869592 16.3269 0.869592 16.0869C0.869551 14.4086 2.23479 13.0434 3.91304 13.0434C4.47045 13.0434 5.01477 13.1947 5.48784 13.4816C5.69217 13.606 5.96001 13.5408 6.08523 13.3356C6.21044 13.1303 6.14433 12.8634 5.93914 12.7382Z" fill="#7367F0"/>
</g>
<defs>
<clipPath id="clip0">
<rect width="20" height="20" fill="white"/>
</clipPath>
</defs>
</svg>
