<svg xmlns="http://www.w3.org/2000/svg" width="20" height="20" fill="none" viewBox="0 0 20 20">
    <g fill="#373737" clip-path="url(#clip0)">
        <path d="M10 3.478c-1.678 0-3.044 1.365-3.044 3.044C6.956 8.2 8.322 9.565 10 9.565s3.043-1.365 3.043-3.043c0-1.679-1.365-3.044-3.043-3.044zm0 5.217c-1.198 0-2.174-.975-2.174-2.173 0-1.199.976-2.174 2.174-2.174s2.174.975 2.174 2.174c0 1.198-.976 2.173-2.174 2.173zM16.087 6.957c-1.198 0-2.174.975-2.174 2.173 0 1.199.976 2.174 2.174 2.174s2.174-.975 2.174-2.174c0-1.198-.976-2.173-2.174-2.173zm0 3.478c-.72 0-1.304-.585-1.304-1.305 0-.719.585-1.304 1.304-1.304.72 0 1.304.585 1.304 1.304 0 .72-.585 1.305-1.304 1.305zM3.975 6.957c-1.2 0-2.174.975-2.174 2.173 0 1.199.976 2.174 2.174 2.174s2.174-.975 2.174-2.174c0-1.198-.975-2.173-2.174-2.173zm0 3.478c-.72 0-1.304-.585-1.304-1.305 0-.719.585-1.304 1.304-1.304.72 0 1.304.585 1.304 1.304 0 .72-.585 1.305-1.304 1.305zM10 10.435c-3.117 0-5.652 2.535-5.652 5.652 0 .24.195.434.435.434s.434-.194.434-.434c0-2.638 2.146-4.783 4.783-4.783 2.637 0 4.783 2.145 4.783 4.783 0 .24.194.434.434.434s.435-.194.435-.434c0-3.117-2.535-5.652-5.652-5.652z"/>
        <path d="M16.087 12.174c-.716 0-1.416.196-2.027.565-.204.125-.27.392-.146.597.126.206.392.27.597.146.474-.287 1.019-.439 1.576-.439 1.678 0 3.044 1.366 3.044 3.044 0 .24.194.435.434.435s.435-.195.435-.435c0-2.157-1.756-3.913-3.913-3.913zM5.94 12.738c-.61-.368-1.311-.564-2.027-.564C1.756 12.174 0 13.93 0 16.087c0 .24.195.435.435.435s.435-.195.435-.435c0-1.678 1.365-3.044 3.043-3.044.557 0 1.102.152 1.575.439.204.124.472.059.597-.146.125-.206.06-.473-.146-.598z"/>
    </g>
    <defs>
        <clipPath id="clip0">
            <path fill="#fff" d="M0 0H20V20H0z"/>
        </clipPath>
    </defs>
</svg>
