<svg xmlns="http://www.w3.org/2000/svg" width="21" height="20" fill="none" viewBox="0 0 21 20">
    <g fill="#373737" clip-path="url(#clip0)">
        <path d="M11.433 20H9.567c-.631 0-1.164-.473-1.239-1.1l-.199-1.563c-.397-.13-.78-.289-1.145-.474l-1.245.967c-.505.39-1.216.346-1.654-.105l-1.313-1.313c-.447-.434-.492-1.144-.101-1.649l.967-1.245c-.186-.365-.345-.748-.474-1.146l-1.567-.199C.973 12.097.5 11.564.5 10.933V9.067c0-.631.473-1.164 1.1-1.239l1.563-.199c.13-.397.289-.78.475-1.145L2.67 5.24c-.392-.505-.346-1.216.106-1.655l1.312-1.312c.434-.448 1.146-.492 1.65-.102l1.244.968c.365-.185.748-.345 1.146-.474l.2-1.567C8.402.472 8.935 0 9.566 0h1.866c.631 0 1.164.472 1.239 1.1l.199 1.563c.398.13.781.289 1.146.475l1.245-.968c.505-.39 1.215-.346 1.654.106l1.312 1.312c.448.434.493 1.145.102 1.65l-.967 1.245c.186.365.345.748.474 1.145l1.566.2c.625.075 1.097.608 1.097 1.239v1.866c0 .631-.473 1.164-1.1 1.239l-1.563.199c-.13.397-.289.78-.474 1.145l.967 1.245c.392.505.346 1.216-.106 1.654l-1.312 1.313c-.434.447-1.146.493-1.65.101l-1.245-.967c-.364.186-.748.346-1.145.474l-.2 1.567c-.075.625-.608 1.097-1.239 1.097zm-4.491-4.05c.069 0 .14.018.203.053.46.256.957.463 1.478.613.16.046.278.182.299.347l.233 1.834c.025.209.206.37.412.37h1.866c.206 0 .387-.161.411-.366l.234-1.837c.021-.165.139-.301.299-.347.521-.15 1.019-.357 1.478-.614.146-.081.327-.067.458.035l1.459 1.134c.167.13.402.119.545-.029l1.321-1.32c.151-.147.163-.382.033-.55l-1.133-1.459c-.103-.132-.117-.312-.035-.458.256-.46.463-.957.613-1.479.046-.16.182-.277.347-.298l1.834-.233c.209-.026.37-.207.37-.413V9.067c0-.206-.161-.387-.366-.411l-1.837-.234c-.165-.021-.301-.139-.347-.299-.15-.521-.357-1.019-.614-1.478-.081-.146-.068-.327.035-.458l1.134-1.459c.13-.168.119-.403-.028-.545l-1.32-1.32c-.147-.152-.382-.164-.55-.033l-1.459 1.133c-.133.103-.313.117-.46.035-.457-.256-.954-.462-1.478-.613-.16-.046-.277-.182-.298-.347l-.233-1.834c-.026-.21-.207-.37-.413-.37H9.567c-.206 0-.387.16-.411.365l-.234 1.837c-.021.165-.139.301-.299.348-.523.15-1.02.357-1.478.613-.146.082-.327.067-.46-.034L5.229 2.829c-.169-.13-.403-.119-.545.028L3.362 4.178c-.151.147-.163.382-.033.55l1.134 1.459c.102.131.116.312.034.458-.257.46-.463.957-.613 1.478-.046.16-.182.278-.347.299l-1.834.233c-.209.025-.37.206-.37.412v1.866c0 .206.161.387.366.411l1.837.234c.165.021.301.139.347.299.15.521.357 1.019.614 1.478.081.146.068.327-.035.458l-1.134 1.459c-.13.168-.119.403.028.545l1.32 1.32c.146.151.38.163.55.033l1.459-1.133c.076-.057.166-.087.257-.087z"/>
        <path d="M10.5 14.167c-2.298 0-4.167-1.87-4.167-4.167 0-2.297 1.87-4.167 4.167-4.167 2.297 0 4.167 1.87 4.167 4.167 0 2.298-1.87 4.167-4.167 4.167zm0-7.5c-1.838 0-3.333 1.495-3.333 3.333s1.495 3.334 3.333 3.334 3.333-1.495 3.333-3.334c0-1.838-1.495-3.333-3.333-3.333z"/>
    </g>
    <defs>
        <clipPath id="clip0">
            <path fill="#fff" d="M0 0H20V20H0z" transform="translate(.5)"/>
        </clipPath>
    </defs>
</svg>
