<svg xmlns="http://www.w3.org/2000/svg" width="20" height="20" fill="none" viewBox="0 0 20 20">
    <g fill="#373737" clip-path="url(#clip0)">
        <path d="M19.922 18.111l-1.373-3.996c.66-1.335 1.01-2.823 1.012-4.32.003-2.578-.994-5.016-2.81-6.864C14.937 1.082 12.517.04 9.94 0 8.589-.021 7.278.228 6.042.74c-1.192.493-2.261 1.208-3.177 2.124C1.948 3.78 1.234 4.85.74 6.041.23 7.277-.02 8.588.001 9.938c.041 2.578 1.082 4.997 2.93 6.813 1.845 1.812 4.277 2.809 6.85 2.809h.015c1.497-.002 2.985-.352 4.32-1.012l3.996 1.373c.153.053.31.079.467.079.37 0 .73-.146 1.003-.419.387-.388.518-.951.34-1.47zm-1.179.632c-.04.039-.123.099-.246.056l-4.234-1.454c-.063-.022-.128-.033-.193-.033-.096 0-.19.024-.277.07-1.224.647-2.607.99-4 .992-4.669.008-8.532-3.785-8.606-8.455-.037-2.349.856-4.557 2.516-6.216 1.66-1.66 3.867-2.554 6.217-2.516 4.67.074 8.462 3.935 8.455 8.606-.003 1.393-.346 2.776-.993 4-.077.144-.09.314-.037.47l1.455 4.233c.042.123-.018.207-.057.247z"/>
        <path d="M9.684 14.17c-.31 0-.607.273-.593.593.014.321.26.593.593.593.31 0 .607-.273.593-.593-.014-.321-.26-.593-.593-.593zM9.684 4.987c-1.627 0-2.95 1.324-2.95 2.95 0 .328.266.593.593.593.327 0 .593-.265.593-.593 0-.973.791-1.764 1.764-1.764s1.764.791 1.764 1.764-.791 1.764-1.764 1.764c-.327 0-.593.266-.593.593v2.418c0 .328.266.593.593.593.327 0 .593-.265.593-.593v-1.885c1.343-.275 2.357-1.466 2.357-2.89 0-1.626-1.324-2.95-2.95-2.95z"/>
    </g>
    <defs>
        <clipPath id="clip0">
            <path fill="#fff" d="M0 0H20V20H0z"/>
        </clipPath>
    </defs>
</svg>
