<svg width="20" height="20" viewBox="0 0 20 20" fill="none" xmlns="http://www.w3.org/2000/svg">
<g clip-path="url(#clip0)">
<path d="M19.9215 18.1111L18.5485 14.1152C19.2089 12.7803 19.5581 11.2924 19.5605 9.79521C19.5645 7.21701 18.5669 4.77917 16.7515 2.93089C14.9359 1.08226 12.5164 0.0417137 9.93886 0.000815344C8.58843 -0.0208643 7.27804 0.227963 6.0421 0.739564C4.85004 1.23304 3.78102 1.94784 2.86477 2.86409C1.94848 3.78034 1.23368 4.84936 0.74024 6.04143C0.228639 7.27736 -0.019915 8.58842 0.00145211 9.93818C0.0422723 12.5157 1.08286 14.9352 2.93149 16.7509C4.77617 18.5627 7.20773 19.56 9.78038 19.5599C9.78542 19.5599 9.79073 19.5599 9.79577 19.5599C11.293 19.5576 12.7809 19.2083 14.1158 18.5479L18.1117 19.9209C18.2653 19.9737 18.4228 19.9995 18.5786 19.9995C18.9487 19.9995 19.3087 19.8541 19.5816 19.5811C19.9695 19.1932 20.0998 18.6299 19.9215 18.1111ZM18.7432 18.7426C18.7038 18.782 18.6196 18.8416 18.4969 18.7995L14.2628 17.3446C14.2002 17.3231 14.1351 17.3124 14.0701 17.3124C13.9744 17.3124 13.8792 17.3356 13.7929 17.3813C12.5692 18.0286 11.1864 18.372 9.79389 18.3741C5.12398 18.3816 1.26102 14.5886 1.18704 9.91939C1.14981 7.57022 2.0434 5.36237 3.7032 3.70257C5.363 2.0428 7.57019 1.14937 9.92003 1.18652C14.5892 1.26054 18.3819 5.12159 18.3747 9.79338C18.3725 11.1859 18.0292 12.5687 17.3818 13.7923C17.3052 13.9372 17.2919 14.1073 17.3452 14.2622L18.8001 18.4964C18.8422 18.619 18.7825 18.7033 18.7432 18.7426Z" fill="#7367F0"/>
<path d="M9.68397 14.1699C9.37385 14.1699 9.07674 14.4426 9.09107 14.7628C9.10545 15.084 9.35159 15.3557 9.68397 15.3557C9.99409 15.3557 10.2912 15.083 10.2769 14.7628C10.2625 14.4416 10.0164 14.1699 9.68397 14.1699Z" fill="#7367F0"/>
<path d="M9.68394 4.9873C8.05741 4.9873 6.73413 6.31058 6.73413 7.9371C6.73413 8.26452 6.9996 8.52999 7.32702 8.52999C7.65444 8.52999 7.91991 8.26452 7.91991 7.9371C7.91991 6.96445 8.71128 6.17308 9.68394 6.17308C10.6566 6.17308 11.448 6.96445 11.448 7.9371C11.448 8.90976 10.6566 9.70112 9.68394 9.70112C9.35652 9.70112 9.09105 9.96659 9.09105 10.294V12.7122C9.09105 13.0396 9.35652 13.3051 9.68394 13.3051C10.0114 13.3051 10.2768 13.0396 10.2768 12.7121V10.827C11.6202 10.5518 12.6337 9.36062 12.6337 7.9371C12.6337 6.31058 11.3105 4.9873 9.68394 4.9873Z" fill="#7367F0"/>
</g>
<defs>
<clipPath id="clip0">
<rect width="20" height="20" fill="white"/>
</clipPath>
</defs>
</svg>
