<svg width="20" height="20" viewBox="0 0 20 20" fill="none" xmlns="http://www.w3.org/2000/svg">
<path d="M17.0864 0.51726C16.7517 0.363089 16.3573 0.423034 16.0835 0.669651L14.7837 1.82055L13.0153 0.238703C12.66 -0.0795676 12.1222 -0.0795676 11.7669 0.238703L9.99998 1.81905L8.23263 0.238703C7.87727 -0.0795676 7.33936 -0.0795676 6.98399 0.238703L5.21515 1.82055L3.91415 0.669698C3.53027 0.32848 2.94244 0.363089 2.60122 0.746971C2.44845 0.918845 2.36476 1.14125 2.36636 1.3712V18.6288C2.36331 19.1432 2.77782 19.5626 3.29218 19.5656C3.52217 19.567 3.74458 19.4832 3.9165 19.3303L5.21627 18.1794L6.98465 19.7613C7.33992 20.0796 7.87778 20.0796 8.23305 19.7613L9.99998 18.1808L11.7672 19.7611C12.1225 20.0793 12.6605 20.0793 13.0158 19.7611L14.7847 18.1793L16.0857 19.3302C16.4695 19.6715 17.0573 19.637 17.3986 19.2532C17.5515 19.0812 17.6352 18.8587 17.6336 18.6286V1.3712C17.6382 1.00277 17.423 0.666982 17.0864 0.51726ZM15.4033 17.4778C15.048 17.163 14.5131 17.1644 14.1595 17.4811L12.3912 19.0629L10.6242 17.4825C10.2689 17.1643 9.73098 17.1643 9.37566 17.4825L7.6085 19.0629L5.83942 17.4811C5.48715 17.1645 4.95326 17.163 4.59926 17.4777L3.303 18.6283V16.1319L3.29831 1.37143L4.59668 2.52205C4.952 2.8368 5.48682 2.8354 5.84045 2.51872L7.60878 0.936922L9.37575 2.51727C9.73107 2.83554 10.269 2.83554 10.6243 2.51727L12.3915 0.936922L14.1605 2.51872C14.5128 2.83535 15.0467 2.8368 15.4007 2.52209L16.697 1.3712V13.2343L16.7016 18.6284L15.4033 17.4778Z" fill="#7367F0"/>
<path d="M14.4393 9.53174H5.56061C5.30195 9.53174 5.09229 9.74141 5.09229 10.0001C5.09229 10.2587 5.30195 10.4684 5.56061 10.4684H14.4393C14.698 10.4684 14.9076 10.2587 14.9076 10.0001C14.9076 9.74141 14.6979 9.53174 14.4393 9.53174Z" fill="#7367F0"/>
<path d="M10.2244 6.72168H5.5606C5.30195 6.72168 5.09229 6.93135 5.09229 7.19C5.09229 7.44865 5.30195 7.65832 5.5606 7.65832H10.2244C10.4831 7.65832 10.6927 7.44865 10.6927 7.19C10.6927 6.93135 10.483 6.72168 10.2244 6.72168Z" fill="#7367F0"/>
<path d="M14.4393 12.3413H5.56061C5.30195 12.3413 5.09229 12.551 5.09229 12.8096C5.09229 13.0683 5.30195 13.2779 5.56061 13.2779H14.4393C14.698 13.2779 14.9076 13.0683 14.9076 12.8096C14.9076 12.551 14.6979 12.3413 14.4393 12.3413Z" fill="#7367F0"/>
</svg>
