<svg xmlns="http://www.w3.org/2000/svg" width="20" height="20" fill="none" viewBox="0 0 20 20">
    <path fill="#373737" d="M17.086.517c-.334-.154-.729-.094-1.002.153l-1.3 1.15L13.015.24c-.355-.319-.893-.319-1.248 0L10 1.819 8.233.24c-.356-.319-.894-.319-1.249 0L5.215 1.82 3.915.67C3.53.328 2.941.363 2.6.747c-.153.172-.236.394-.235.624V18.63c-.003.514.412.934.926.937.23.001.453-.083.625-.236l1.3-1.15 1.768 1.581c.355.319.893.319 1.248 0L10 18.181l1.767 1.58c.356.318.894.318 1.249 0l1.769-1.582 1.3 1.151c.384.342.972.307 1.314-.077.152-.172.236-.394.235-.624V1.37c.004-.368-.211-.704-.548-.854zm-1.683 16.96c-.355-.314-.89-.313-1.244.004l-1.768 1.582-1.767-1.58c-.355-.319-.893-.319-1.248 0l-1.767 1.58-1.77-1.582c-.352-.317-.886-.318-1.24-.003l-1.296 1.15v-2.496l-.005-14.76 1.299 1.15c.355.315.89.313 1.243-.003L7.61.937l1.767 1.58c.355.319.893.319 1.248 0l1.768-1.58 1.769 1.582c.352.316.886.318 1.24.003l1.296-1.15v11.862l.005 5.394-1.299-1.15z"/>
    <path fill="#373737" d="M14.44 9.532H5.56c-.258 0-.468.21-.468.468 0 .259.21.468.469.468h8.878c.259 0 .469-.21.469-.468 0-.259-.21-.468-.469-.468zM10.224 6.722H5.561c-.26 0-.469.21-.469.468 0 .259.21.468.469.468h4.663c.26 0 .469-.21.469-.468 0-.259-.21-.468-.469-.468zM14.44 12.341H5.56c-.258 0-.468.21-.468.469 0 .258.21.468.469.468h8.878c.259 0 .469-.21.469-.468 0-.259-.21-.469-.469-.469z"/>
</svg>
