<svg xmlns="http://www.w3.org/2000/svg" width="16" height="16" fill="none" viewBox="0 0 16 16">
    <path fill="#FF4660" d="M14.127.508H10.18C10.152.223 9.911 0 9.62 0H6.38c-.293 0-.533.223-.562.508H1.873c-.312 0-.564.253-.564.565v1.073c0 .312.252.564.564.564h12.254c.311 0 .564-.252.564-.564V1.073c0-.312-.253-.565-.564-.565zM2.492 3.795v11.64c0 .312.253.565.565.565h9.886c.312 0 .564-.253.564-.565V3.795H2.492zm4.135 8.737c0 .344-.28.622-.623.622-.344 0-.622-.278-.622-.622V6.36c0-.344.278-.622.622-.622s.623.278.623.622v6.172zm3.991 0c0 .344-.278.622-.622.622s-.623-.278-.623-.622V6.36c0-.344.279-.622.623-.622s.622.278.622.622v6.172z"/>
</svg>
