<svg xmlns="http://www.w3.org/2000/svg" width="22" height="22" fill="none" viewBox="0 0 22 22">
    <g clip-path="url(#clip0)">
        <path fill="#FFCB5A" d="M15.127 16.501H6.879v-.687c-.013-1.11-.465-2.169-1.258-2.945-2.928-2.969-2.9-7.748.063-10.682 2.963-2.933 7.742-2.914 10.682.043 2.94 2.958 2.929 7.737-.023 10.682-.778.765-1.216 1.81-1.216 2.902v.687z"/>
        <path fill="#62808C" d="M7.567 17.877h6.873c.38 0 .687.307.687.687 0 .38-.308.687-.688.687H7.568c-.38 0-.688-.308-.688-.687 0-.38.308-.688.688-.688zM8.941 20.625h4.124c.38 0 .687.308.687.688 0 .38-.307.687-.687.687H8.94c-.38 0-.687-.308-.687-.687 0-.38.308-.688.687-.688z"/>
        <path fill="#fff" d="M6.192 6.88h1.375v1.374H6.192V6.88zM8.941 8.254h1.375v8.248h1.374V8.254h1.375V6.88H8.94v1.374zM14.44 6.88h1.374v1.374H14.44V6.88z"/>
    </g>
    <defs>
        <clipPath id="clip0">
            <path fill="#fff" d="M0 0H22V22H0z"/>
        </clipPath>
    </defs>
</svg>
