<svg xmlns="http://www.w3.org/2000/svg" width="285" height="116" fill="none" viewBox="0 0 285 116">
    <path fill="#F2F2F2" d="M0 8c0-4.418 3.582-8 8-8h269c4.418 0 8 3.582 8 8v108H0V8z"/>
    <path fill="#7367F0" fill-rule="evenodd" d="M285 81.474l-12-5c-12-4-36-13-59-13-24 0-48 9-72 5-23-5-47-22-71-25s-47 9-59 15l-12 5v52h285v-34z" clip-rule="evenodd" opacity=".5"/>
    <path fill="#C6C0FF" fill-rule="evenodd" d="M0 81.474l12-5c12-4 36-13 59-13 24 0 48 9 72 5 23-5 47-22 71-25s47 9 59 15l12 5v52H0v-34z" clip-rule="evenodd" opacity=".5"/>
    <path fill="#3F2037" d="M82.61 94.078h10.78V116H82.61V94.078z"/>
    <path fill="#3F2037" d="M63.746 116H77.22V88.687H98.78V116h13.537V24H63.746v92zm37.731-81.219h5.39v5.39h-5.39v-5.39zm0 10.782h5.39v5.39h-5.39v-5.39zm0 10.78h5.39v5.391h-5.39v-5.39zm0 10.782h5.39v5.39h-5.39v-5.39zm0 10.781h5.39v5.39h-5.39v-5.39zM90.695 34.781h5.391v5.39h-5.39v-5.39zm0 10.782h5.391v5.39h-5.39v-5.39zm0 10.78h5.391v5.391h-5.39v-5.39zm0 10.782h5.391v5.39h-5.39v-5.39zm0 10.781h5.391v5.39h-5.39v-5.39zm-10.78-43.125h5.39v5.39h-5.39v-5.39zm0 10.782h5.39v5.39h-5.39v-5.39zm0 10.78h5.39v5.391h-5.39v-5.39zm0 10.782h5.39v5.39h-5.39v-5.39zm0 10.781h5.39v5.39h-5.39v-5.39zM69.132 34.781h5.39v5.39h-5.39v-5.39zm0 10.782h5.39v5.39h-5.39v-5.39zm0 10.78h5.39v5.391h-5.39v-5.39zm0 10.782h5.39v5.39h-5.39v-5.39zm0 10.781h5.39v5.39h-5.39v-5.39z"/>
    <path fill="#484848" d="M117.583 45.563H134V116h-16.417V45.562zM42 45.563h16.35V116H42V45.562z"/>
    <g clip-path="url(#clip0)">
        <path fill="#55A2F0" d="M139.527 74.096h-9.654c-.303 0-.549.246-.549.549v6.424c0 .303.246.548.549.548h9.654c.303 0 .549-.245.549-.548v-6.424c0-.303-.246-.549-.549-.549z"/>
        <path fill="#4B9EE2" d="M139.527 74.096h-4.824v7.521h4.824c.303 0 .549-.245.549-.548v-6.424c0-.303-.246-.549-.549-.549z"/>
        <path fill="#2D5872" d="M184.772 44.23c-.664 0-1.202.538-1.202 1.202V57.55c0 .664.538 1.203 1.202 1.203.665 0 1.203-.539 1.203-1.203V45.432c0-.664-.538-1.203-1.203-1.203z"/>
        <path fill="#FF4C4C" d="M186.797 62.127h-4.049c-.698 0-1.265-.566-1.265-1.265v-4.424c0-.699.567-1.265 1.265-1.265h4.049c.698 0 1.265.566 1.265 1.265v4.424c0 .699-.567 1.265-1.265 1.265z"/>
        <path fill="#F33A3A" d="M192.51 74.954h-15.475c-.666 0-1.205-.54-1.205-1.205V62.068c0-.665.539-1.205 1.205-1.205h15.475c.666 0 1.205.54 1.205 1.205v11.68c0 .666-.539 1.206-1.205 1.206z"/>
        <path fill="#FF4C4C" d="M197.467 116h-27.156V66.63H196.8c.368 0 .667.298.667.666V116z"/>
        <path fill="#F33A3A" d="M196.8 66.63h-7.376c.368 0 .667.298.667.666V116h7.376V67.296c0-.368-.299-.667-.667-.667z"/>
        <path fill="#E1EFFB" d="M192.388 78.398h-15.561c-.551 0-.997-.447-.997-.998v-2.306c0-.551.447-.997.997-.997h15.561c.551 0 .998.446.998.997V77.4c0 .551-.447.998-.998.998zM192.388 88.259h-15.561c-.551 0-.997-.447-.997-.998v-2.306c0-.55.447-.997.997-.997h15.561c.551 0 .998.446.998.997v2.306c0 .551-.447.998-.998.998zM192.388 98.12h-15.561c-.551 0-.997-.447-.997-.998v-2.306c0-.55.447-.997.997-.997h15.561c.551 0 .998.446.998.997v2.306c0 .551-.447.998-.998.998zM192.388 107.981h-15.561c-.551 0-.997-.447-.997-.997v-2.307c0-.551.447-.997.997-.997h15.561c.551 0 .998.446.998.997v2.307c0 .55-.447.997-.998.997z"/>
        <path fill="#FFB125" d="M177.371 116h-31.359c-.502 0-.908-.407-.908-.908V37.36c0-.501.406-.907.908-.907h31.359c.501 0 .908.406.908.907v77.732c0 .501-.407.908-.908.908z"/>
        <path fill="#FF901D" d="M177.371 36.453h-7.376c.501 0 .908.406.908.907v77.732c0 .501-.407.908-.908.908h7.376c.501 0 .908-.407.908-.908V37.36c0-.501-.407-.907-.908-.907z"/>
        <path fill="#FF901D" d="M179.704 35h-36.408c-.249 0-.451.202-.451.45v3.057c0 .248.202.45.451.45h36.408c.249 0 .451-.201.451-.45V35.45c0-.25-.202-.451-.451-.451z"/>
        <path fill="#E1EFFB" d="M154.201 49.855h-4.412c-.31 0-.562-.252-.562-.562v-5.387c0-.311.252-.563.562-.563h4.412c.311 0 .563.252.563.563v5.387c0 .31-.252.562-.563.562zM163.897 49.855h-4.412c-.31 0-.562-.252-.562-.562v-5.387c0-.311.252-.563.562-.563h4.412c.311 0 .563.252.563.563v5.387c0 .31-.252.562-.563.562zM173.593 49.855h-4.412c-.311 0-.563-.252-.563-.562v-5.387c0-.311.252-.563.563-.563h4.412c.311 0 .563.252.563.563v5.387c0 .31-.252.562-.563.562zM154.201 64.387h-4.412c-.31 0-.562-.252-.562-.563v-5.387c0-.31.252-.563.562-.563h4.412c.311 0 .563.252.563.563v5.387c0 .31-.252.563-.563.563zM163.897 64.387h-4.412c-.31 0-.562-.252-.562-.563v-5.387c0-.31.252-.563.562-.563h4.412c.311 0 .563.252.563.563v5.387c0 .31-.252.563-.563.563zM173.593 64.387h-4.412c-.311 0-.563-.252-.563-.563v-5.387c0-.31.252-.563.563-.563h4.412c.311 0 .563.252.563.563v5.387c0 .31-.252.563-.563.563zM154.201 78.918h-4.412c-.31 0-.562-.252-.562-.563v-5.387c0-.31.252-.562.562-.562h4.412c.311 0 .563.251.563.562v5.387c0 .311-.252.563-.563.563zM163.897 78.918h-4.412c-.31 0-.562-.252-.562-.563v-5.387c0-.31.252-.562.562-.562h4.412c.311 0 .563.251.563.562v5.387c0 .311-.252.563-.563.563zM173.593 78.918h-4.412c-.311 0-.563-.252-.563-.563v-5.387c0-.31.252-.562.563-.562h4.412c.311 0 .563.251.563.562v5.387c0 .311-.252.563-.563.563zM163.897 93.45h-4.412c-.31 0-.562-.252-.562-.563V87.5c0-.311.252-.563.562-.563h4.412c.311 0 .563.252.563.563v5.387c0 .31-.252.562-.563.562zM173.593 93.45h-4.412c-.311 0-.563-.252-.563-.563V87.5c0-.311.252-.563.563-.563h4.412c.311 0 .563.252.563.563v5.387c0 .31-.252.562-.563.562zM163.897 107.981h-4.412c-.31 0-.562-.252-.562-.563v-5.387c0-.31.252-.562.562-.562h4.412c.311 0 .563.251.563.562v5.387c0 .311-.252.563-.563.563zM173.593 107.981h-4.412c-.311 0-.563-.252-.563-.563v-5.387c0-.31.252-.562.563-.562h4.412c.311 0 .563.251.563.562v5.387c0 .311-.252.563-.563.563z"/>
        <path fill="#61AFF6" d="M159.59 116h-33.364c-.383 0-.693-.311-.693-.694V79.959c0-.383.31-.694.693-.694h33.364c.383 0 .693.31.693.694v35.348c0 .382-.31.693-.693.693z"/>
        <path fill="#55A2F0" d="M159.59 79.265h-7.509c.383 0 .694.31.694.694v35.348c0 .383-.311.693-.694.693h7.509c.383 0 .693-.31.693-.693V79.959c0-.383-.31-.694-.693-.694z"/>
        <path fill="#E1EFFB" d="M134.703 89.291h-4.367c-.384 0-.696-.311-.696-.696v-2.781c0-.384.312-.696.696-.696h4.367c.384 0 .696.312.696.696v2.781c0 .385-.312.696-.696.696zM144.868 89.291h-4.367c-.384 0-.696-.311-.696-.696v-2.781c0-.384.312-.696.696-.696h4.367c.384 0 .696.312.696.696v2.781c0 .385-.312.696-.696.696zM155.033 89.291h-4.367c-.384 0-.696-.311-.696-.696v-2.781c0-.384.312-.696.696-.696h4.367c.384 0 .696.312.696.696v2.781c0 .385-.312.696-.696.696zM134.703 99.052h-4.366c-.385 0-.697-.312-.697-.696v-2.781c0-.384.312-.696.697-.696h4.366c.385 0 .696.312.696.696v2.781c0 .385-.311.696-.696.696zM144.868 99.052h-4.367c-.384 0-.696-.312-.696-.696v-2.781c0-.384.312-.696.696-.696h4.367c.384 0 .696.312.696.696v2.781c0 .385-.312.696-.696.696zM155.033 99.052h-4.367c-.384 0-.696-.312-.696-.696v-2.781c0-.384.312-.696.696-.696h4.367c.384 0 .696.312.696.696v2.781c0 .385-.312.696-.696.696zM134.703 108.813h-4.366c-.385 0-.697-.312-.697-.696v-2.781c0-.384.312-.696.697-.696h4.366c.385 0 .696.312.696.696v2.781c0 .384-.311.696-.696.696zM144.868 108.813h-4.367c-.384 0-.696-.312-.696-.696v-2.781c0-.384.312-.696.696-.696h4.367c.384 0 .696.312.696.696v2.781c0 .384-.312.696-.696.696zM155.033 108.813h-4.367c-.384 0-.696-.312-.696-.696v-2.781c0-.384.312-.696.696-.696h4.367c.384 0 .696.312.696.696v2.781c0 .384-.312.696-.696.696z"/>
    </g>
    <path fill="#0075CF" d="M212.863 94.078h10.781V116h-10.781V94.078z"/>
    <path fill="#0075CF" d="M194 116h13.472V88.687h21.563V116h13.536V24H194v92zm37.73-81.219h5.391v5.39h-5.391v-5.39zm0 10.782h5.391v5.39h-5.391v-5.39zm0 10.78h5.391v5.391h-5.391v-5.39zm0 10.782h5.391v5.39h-5.391v-5.39zm0 10.781h5.391v5.39h-5.391v-5.39zm-10.781-43.125h5.391v5.39h-5.391v-5.39zm0 10.782h5.391v5.39h-5.391v-5.39zm0 10.78h5.391v5.391h-5.391v-5.39zm0 10.782h5.391v5.39h-5.391v-5.39zm0 10.781h5.391v5.39h-5.391v-5.39zm-10.781-43.125h5.39v5.39h-5.39v-5.39zm0 10.782h5.39v5.39h-5.39v-5.39zm0 10.78h5.39v5.391h-5.39v-5.39zm0 10.782h5.39v5.39h-5.39v-5.39zm0 10.781h5.39v5.39h-5.39v-5.39zm-10.782-43.125h5.391v5.39h-5.391v-5.39zm0 10.782h5.391v5.39h-5.391v-5.39zm0 10.78h5.391v5.391h-5.391v-5.39zm0 10.782h5.391v5.39h-5.391v-5.39zm0 10.781h5.391v5.39h-5.391v-5.39z"/>
    <defs>
        <clipPath id="clip0">
            <path fill="#fff" d="M0 0H81V81H0z" transform="translate(121 35)"/>
        </clipPath>
    </defs>
</svg>
