<svg xmlns="http://www.w3.org/2000/svg" width="285" height="116" fill="none" viewBox="0 0 285 116">
    <path fill="#F2F2F2" d="M0 8c0-4.418 3.582-8 8-8h269c4.418 0 8 3.582 8 8v108H0V8z"/>
    <path fill="#7367F0" fill-rule="evenodd" d="M285 81.474l-12-5c-12-4-36-13-59-13-24 0-48 9-72 5-23-5-47-22-71-25s-47 9-59 15l-12 5v52h285v-34z" clip-rule="evenodd" opacity=".5"/>
    <path fill="#C6C0FF" fill-rule="evenodd" d="M0 81.474l12-5c12-4 36-13 59-13 24 0 48 9 72 5 23-5 47-22 71-25s47 9 59 15l12 5v52H0v-34z" clip-rule="evenodd" opacity=".5"/>
    <g clip-path="url(#clip0)">
        <path fill="#3F2037" d="M190.193 46.635s-7.922 6.863-8.248 18.182c-.325 11.32 5.825 16.18.116 21.04-5.71 4.86-18.408 10.145-10.711 23.252h31.373v-60.13l-12.53-2.344z"/>
        <path fill="#3F2037" d="M214.95 46.635s7.922 6.863 8.252 18.182c.33 11.32-5.83 16.18-.126 21.04 5.704 4.86 18.418 10.145 10.717 23.252h-31.374v-60.13l12.531-2.344z"/>
        <path fill="#FF4F4E" d="M238.385 114.74h-71.932s.723-8.976 5.064-10.711c.897-.362 2.391-1.049 4.195-1.945l.765-.378c3.759-1.861 8.593-4.367 12.242-6.291 3.115-1.63 5.369-2.826 5.369-2.826l.551.12c5.112 1.148 10.419 1.107 15.513-.12l4.535 2.328c1.573.807 3.466 1.761 5.416 2.742 5.243 2.621 11.037 5.499 13.207 6.37 4.352 1.735 5.075 10.711 5.075 10.711z"/>
        <path fill="#C42C31" d="M182.779 114.74h-1.919c-1.489-3.277-3.974-8.913-5.143-12.656l.765-.378c.865 2.202 3.691 9.191 6.297 13.034zM220.753 114.74h1.919c1.489-3.277 4.195-9.437 5.39-13.139l-.697-.335c-.86 2.202-4.006 9.631-6.612 13.474z"/>
        <path fill="#FF4F4E" d="M198.644 114.74h-15.729c-2.647-3.937-5.101-9.647-6.448-13.039-.682-1.72-1.086-2.842-1.086-2.842 4.053-3.208 13.328-3.44 13.328-3.44 3.324 4.426 7.581 13.837 9.935 19.321zM205.035 114.74h15.729c2.621-3.937 5.096-9.647 6.443-13.039.687-1.72 1.086-2.842 1.086-2.842-4.053-3.208-13.579-3.942-13.579-3.942-3.314 4.425-7.325 14.339-9.679 19.823z"/>
        <path fill="#FFB8A1" d="M214.687 94.917c-.293 2.613-.747 5.206-1.358 7.764-1.184 4.871-3.229 10.214-6.674 12.059h-5.662c-4.719-1.966-7.98-7.618-9.962-12.431-.921-2.242-1.69-4.543-2.301-6.89 3.114-1.63 5.369-2.825 5.369-2.825l.55.12c5.112 1.148 10.42 1.107 15.514-.12l4.524 2.323z"/>
        <path fill="#FFF7F1" d="M213.34 102.681c-1.185 4.871-3.23 10.214-6.674 12.059h-5.673c-4.719-1.966-7.98-7.618-9.962-12.431 2.486 1.049 6.192 1.961 11.435 1.961 3.686.047 7.356-.49 10.874-1.589z"/>
        <path fill="#FFB8A1" d="M210.53 94.429s-1.411 4.436-7.896 4.436c-7.56 0-9.338-4.032-9.338-4.032.591-1.56 1.062-3.162 1.411-4.792.432-1.968.636-3.979.608-5.993l13.28-.524c.126 1.127.325 2.454.551 3.785.603 3.529 1.384 7.12 1.384 7.12z"/>
        <path fill="#FFF7F1" d="M202.723 100.909c-1.532.007-3.047-.325-4.436-.971-1.389-.647-2.619-1.591-3.601-2.767-.964-1.104-1.732-2.364-2.27-3.728-.022-.064-.017-.135.013-.196.03-.062.082-.11.146-.132.065-.023.135-.02.197.007.063.028.111.08.136.143.523 1.307 1.262 2.515 2.187 3.576.926 1.123 2.092 2.024 3.412 2.637 1.32.613 2.761.923 4.216.907 1.394.045 2.778-.253 4.03-.867 1.252-.615 2.335-1.526 3.153-2.656.804-1.07 1.399-2.281 1.756-3.57.019-.068.062-.125.122-.161.059-.036.13-.048.198-.034.067.018.124.06.16.119.036.058.048.129.034.196-.373 1.353-.995 2.624-1.835 3.749-.873 1.193-2.021 2.158-3.348 2.81-1.327.653-2.792.975-4.27.938z"/>
        <path fill="#3F2037" d="M209.146 87.304c-2.061 1.431-6.559 3.56-14.434 2.731.43-1.966.632-3.975.603-5.987l13.28-.524c.126 1.122.325 2.448.551 3.78z"/>
        <path fill="#FFB8A1" d="M190.245 66.725s-4.11-5.594-7.309-2.285c-3.198 3.308 2.968 14.847 8.562 12.33l-1.253-10.044z"/>
        <path fill="#FF8A8A" d="M188.536 73.337c-.068 0-.134-.026-.185-.071-.051-.046-.084-.108-.093-.176-.524-3.885-3.633-6.291-3.67-6.291-.03-.023-.055-.051-.073-.083-.019-.033-.031-.068-.036-.105-.005-.037-.002-.075.007-.111.01-.036.027-.07.049-.1.023-.03.052-.054.084-.073.032-.018.068-.03.105-.035.037-.005.074-.003.11.007.037.01.07.026.1.049 2.06 1.678 3.439 4.049 3.88 6.669.005.037.003.074-.007.11-.009.036-.025.07-.048.1-.022.03-.05.055-.082.073-.032.02-.068.032-.104.037h-.037z"/>
        <path fill="#FF8A8A" d="M187.676 70.542c-.046 0-.092-.01-.133-.031-.041-.021-.076-.052-.103-.09-.414-.613-1.646-.676-2.097-.644-.037.002-.075-.003-.11-.016-.035-.012-.067-.03-.095-.056-.028-.025-.05-.055-.066-.088-.017-.034-.026-.07-.028-.108-.004-.074.021-.148.07-.205.048-.056.118-.092.192-.099.079 0 1.919-.104 2.622.897.02.03.035.066.042.102.007.037.007.074 0 .11-.007.037-.022.072-.043.103-.02.031-.047.058-.078.078-.051.034-.112.05-.173.047z"/>
        <path fill="#FFF7F1" d="M188.96 77.028c-.082-.014-.162-.035-.241-.063-.179.08-.375.114-.571.099-.196-.015-.385-.077-.551-.183-.949-.666-.126-2.275-.115-2.296.026-.069.027-.144.001-.212-.026-.069-.075-.125-.14-.16-.065-.034-.139-.043-.21-.026-.071.017-.134.06-.175.12-.042.084-1.086 2.097.299 3.067.288.198.63.302.98.299.354 0 .702-.1 1.001-.289.118-.073.226-.16.32-.262-.21-.031-.398-.068-.598-.094z"/>
        <path fill="#FFB8A1" d="M215.285 66.725s4.121-5.594 7.309-2.285c3.187 3.308-2.968 14.847-8.562 12.33l1.253-10.044z"/>
        <path fill="#FF8A8A" d="M216.942 73.337h-.042c-.037-.005-.072-.018-.104-.037s-.061-.043-.083-.073c-.022-.03-.039-.064-.048-.1-.009-.036-.011-.073-.006-.11.438-2.621 1.818-4.992 3.88-6.669.029-.023.063-.04.099-.05.036-.01.074-.012.111-.007.037.005.072.017.105.036.032.019.06.044.083.073.045.06.064.136.055.21-.01.075-.049.142-.107.189-.032.026-3.146 2.417-3.67 6.291-.009.067-.041.129-.091.174-.05.045-.115.07-.182.073z"/>
        <path fill="#FF8A8A" d="M217.802 70.542c-.056 0-.111-.016-.158-.047-.031-.02-.057-.047-.078-.078-.021-.03-.035-.066-.043-.102-.007-.037-.007-.074 0-.11.008-.037.022-.072.043-.103.676-1.001 2.516-.902 2.59-.897.069.013.131.05.175.106.043.055.065.124.062.194-.004.07-.034.137-.083.187-.05.05-.116.08-.186.085-.44-.031-1.677.037-2.097.645-.026.036-.06.065-.099.086-.039.02-.082.033-.126.034z"/>
        <path fill="#FFF7F1" d="M216.57 77.028c.082-.014.162-.035.241-.063.179.08.376.114.571.099.196-.015.385-.077.551-.183.949-.666.126-2.275.115-2.296-.026-.069-.026-.144-.001-.212.026-.069.076-.125.14-.16.065-.034.139-.043.21-.026.071.017.134.06.175.12.042.084 1.086 2.097-.298 3.067-.287.187-.623.284-.965.278-.355 0-.702-.1-1.002-.289-.117-.073-.225-.16-.319-.262.194-.01.382-.047.582-.073z"/>
        <path fill="#FFB8A1" d="M204.616 49.948c-12.148-.351-17.826 6.145-16.909 19.567.577 8.33 5.06 18.47 14.922 18.701 10.286.241 14.968-11.43 15.204-20.049.236-9.065-1.914-15.126-9.437-17.584-1.247-.286-2.509-.497-3.78-.635z"/>
        <path fill="#FF8A8A" d="M193.91 72.115c.001.047-.008.093-.025.136-.018.043-.044.083-.076.116-.033.033-.072.06-.115.078-.043.018-.089.027-.135.027-.051.006-.101.001-.15-.014-.048-.015-.092-.04-.13-.073-.038-.034-.068-.075-.089-.12-.02-.047-.031-.097-.031-.147 0-.05.011-.1.031-.146.021-.046.051-.088.089-.121.038-.034.082-.059.13-.073.049-.016.099-.02.15-.014.093 0 .182.037.248.103s.103.155.103.248zM195.64 72.97c.001.07-.019.14-.058.2-.039.06-.094.106-.16.133-.065.028-.137.036-.207.022-.069-.014-.133-.048-.184-.098-.05-.05-.084-.114-.097-.184-.014-.07-.007-.141.021-.207.028-.065.074-.12.134-.16.059-.038.129-.058.2-.057.046 0 .091.009.134.026.043.018.081.044.114.077.033.032.059.07.076.113.018.043.027.089.027.135zM193.91 74.202c0 .093-.037.182-.103.248s-.155.103-.248.103c-.094 0-.184-.037-.251-.102-.066-.066-.105-.155-.106-.25.001-.093.039-.183.106-.25.067-.066.156-.104.251-.106.093.002.183.04.248.107.066.066.103.156.103.25zM196.626 74.553c0 .047-.008.093-.026.136-.017.044-.043.083-.075.116-.033.033-.072.06-.115.077-.043.018-.089.028-.136.028-.05.006-.101.001-.149-.014-.048-.015-.092-.04-.13-.073-.038-.034-.068-.075-.089-.12-.021-.047-.031-.097-.031-.147 0-.05.01-.1.031-.147.021-.046.051-.087.089-.12.038-.034.082-.059.13-.074.048-.014.099-.02.149-.013.093 0 .183.037.249.103s.103.155.103.248zM198.434 74.202c-.001.094-.039.183-.106.249-.067.065-.156.102-.25.102-.093 0-.183-.037-.248-.103-.066-.066-.103-.155-.103-.248 0-.094.036-.184.102-.25.066-.067.155-.105.249-.107.094.002.184.04.251.106.066.067.104.157.105.25zM197.617 72.472c-.002.093-.04.183-.107.249-.066.065-.156.102-.25.102-.046 0-.092-.01-.134-.027-.043-.017-.082-.043-.114-.076-.033-.032-.059-.071-.077-.114-.017-.042-.026-.088-.026-.134 0-.094.037-.184.102-.25.066-.067.155-.105.249-.107.094.002.184.04.251.106.066.067.104.157.106.25zM211.919 72.115c-.001.071.019.14.058.2.038.059.094.106.159.133.065.028.136.036.206.023.069-.013.133-.047.184-.097.05-.05.085-.113.099-.182.014-.07.007-.141-.019-.207-.027-.065-.073-.121-.132-.16-.058-.04-.128-.061-.198-.061-.047 0-.093.008-.136.025-.044.017-.083.043-.116.076s-.06.072-.078.115c-.018.042-.027.089-.027.135zM210.194 72.97c0 .046.008.093.025.136.018.043.044.083.076.116.033.033.072.06.115.077.043.018.089.027.136.027.05.007.1.002.149-.013.048-.015.092-.04.13-.074.038-.033.068-.074.089-.12.02-.046.031-.096.031-.147 0-.05-.011-.1-.031-.146-.021-.046-.051-.087-.089-.12-.038-.034-.082-.059-.13-.074-.049-.015-.099-.02-.149-.013-.047 0-.092.009-.135.026-.043.018-.081.044-.114.077-.032.032-.058.07-.076.113-.018.043-.027.089-.027.135zM211.919 74.202c0 .07.021.14.06.198.039.059.095.104.16.131.065.027.137.034.206.02.069-.013.133-.047.183-.097.05-.05.084-.113.097-.183.014-.069.007-.14-.02-.206-.027-.065-.073-.12-.131-.16-.059-.039-.128-.06-.198-.06-.095 0-.186.038-.252.105-.067.067-.105.157-.105.252zM209.203 74.553c-.001.07.019.14.058.2.038.059.094.106.159.133.065.028.137.036.206.023.07-.013.134-.047.184-.097.05-.05.085-.113.099-.182.014-.07.008-.141-.019-.207-.027-.065-.073-.121-.132-.16-.058-.04-.127-.061-.198-.061-.047 0-.093.008-.136.025-.043.017-.083.043-.116.076s-.059.072-.077.115c-.018.042-.028.089-.028.135zM207.395 74.202c.01.086.052.166.117.224.065.057.149.09.236.09s.172-.033.237-.09c.065-.058.107-.138.117-.224.006-.05.002-.101-.013-.15-.015-.047-.04-.092-.074-.13-.033-.037-.074-.068-.12-.088-.046-.021-.096-.032-.147-.032-.05 0-.1.011-.146.032-.046.02-.087.05-.121.088-.033.038-.058.083-.073.13-.015.049-.02.1-.013.15zM208.218 72.472c.01.086.052.166.117.224.065.057.15.09.237.09s.171-.033.236-.09c.065-.058.107-.138.117-.224.007-.05.002-.101-.013-.15-.015-.048-.04-.092-.073-.13-.034-.038-.075-.068-.121-.089-.046-.02-.096-.031-.146-.031-.051 0-.101.01-.147.031-.046.021-.087.051-.12.09-.034.037-.059.081-.074.13-.015.048-.019.099-.013.149z"/>
        <path fill="#3F2037" d="M188.19 71.885s2.432-5.133 1.62-8.913l-2.653-.771s-.409 6.501 1.033 9.684zM217.309 71.885s-2.433-5.133-1.625-8.913l2.673-.76s.394 6.49-1.048 9.673z"/>
        <path fill="#3F2037" d="M190.193 46.635c-2.942 2.91-5.238 7.675-5.39 10.57-.152 2.894.603 5.877 2.81 6.999 6.91 3.518 21.202-9.7 21.202-9.7s5.039 10.266 9.018 9.778c3.979-.487 5.662-12.058-3.79-18.502-9.453-6.443-19.331-3.607-23.85.855z"/>
        <path fill="#3F2037" d="M192.667 65.777c.644-1.269 1.647-2.319 2.884-3.02 2.826-1.757 4.855 1.263 4.855 1.263s-2.208-.77-3.906-.23c-1.348.517-2.634 1.183-3.833 1.987zM213.429 65.777c-.647-1.268-1.651-2.318-2.889-3.02-2.815-1.757-4.844 1.263-4.844 1.263s2.207-.77 3.906-.23c1.345.518 2.629 1.184 3.827 1.987z"/>
        <path fill="#FF8A8A" d="M203.457 76.572c-.557-.016-1.105-.146-1.609-.383-.08-.034-.146-.092-.188-.167-.043-.075-.06-.162-.048-.247l.823-6.292c.013-.103.067-.197.149-.261.083-.064.188-.093.291-.08.104.014.198.068.262.15.064.083.092.187.079.291l-.786 5.972c.307.153.648.226.992.213.343-.012.678-.111.974-.287.042-.032.091-.055.143-.068.052-.013.106-.016.158-.007.053.009.104.028.149.057s.083.066.113.11c.03.045.051.095.061.147.01.053.009.107-.002.159-.012.052-.034.102-.065.145s-.071.08-.117.107c-.404.285-.885.438-1.379.44zM202.676 80.745c-.324 0-.648-.019-.97-.058-1.085-.12-2.139-.438-3.109-.938-.067-.058-.113-.138-.129-.226-.016-.087-.002-.178.04-.257.042-.078.109-.14.191-.176.082-.035.174-.041.26-.017.188.105 4.687 2.537 8.582-1.049.036-.043.081-.078.132-.102.05-.024.106-.037.162-.038.056-.001.111.01.163.032.051.022.098.055.135.097.038.041.066.09.084.143.017.054.022.11.016.166-.006.056-.025.11-.054.157-.028.049-.067.09-.113.122-1.454 1.382-3.384 2.15-5.39 2.144zM203.363 83.052c-.575 0-1.147-.082-1.699-.241-.05-.015-.096-.04-.136-.073-.04-.033-.073-.073-.098-.119-.024-.046-.039-.096-.044-.148-.005-.051.001-.103.016-.153.032-.099.102-.18.194-.229.092-.048.199-.058.299-.028.026 0 1.824.524 3.088-.168.045-.025.095-.041.146-.048.051-.006.104-.002.153.012.05.014.097.037.138.07.041.031.075.07.1.116.026.045.042.094.048.146.007.051.003.104-.011.153-.014.05-.038.097-.07.138-.031.04-.071.075-.116.1-.618.326-1.31.488-2.008.472z"/>
        <path fill="#3F2037" d="M198.057 68.152c0 1.1-.383 1.997-.902 2.002-.519.006-.954-.89-.975-1.97-.021-1.081.388-1.993.907-2.004.519-.01.954.876.97 1.972zM207.872 68.152c0 1.1.388 1.997.901 2.002.514.006.955-.87.976-1.97.021-1.102-.383-1.993-.902-2.004-.519-.01-.975.876-.975 1.972z"/>
    </g>
    <g clip-path="url(#clip1)">
        <path fill="#3F2037" d="M68.1 105.789s-11.734 2.351-12.223-7.515c-.215-4.269-.792-3.604-4.528-7.202-3.735-3.599-3.72-5.046-2.923-8.405.796-3.359 4.165-4.464 2.508-7.559-2.19-4.058-1.52-10.996 3.236-13.69 4.587-2.626 5.115-2.591 5.115-5.27 0-3.501 3.633-9.144 11.133-8.557 6.454.504 5.451-2.635 10.023-4.034 8.517-2.606 12.644 4.772 15.577 5.036 2.934.264 8.014.318 10.59 4.22 3.193 4.835.372 8.8 4.371 9.182 4 .381 8.004 3.867 7.872 7.47-.132 3.604-2.268 6.665-.802 8.25 1.467 1.583 2.034 11.078-3.911 12.892-8.087 2.48 0 14.458-14.878 14.233-13.348-.176-31.16.949-31.16.949z"/>
        <path fill="#0075CF" d="M116.225 115h-67.08s.674-8.37 4.722-9.989c.836-.332 2.23-.978 3.912-1.814l.718-.352 1.335-.684c3.261-1.638 7.1-3.628 10.087-5.193l1.007-.528c2.371-1.247 3.995-2.112 3.995-2.112l.488.117c4.77 1.067 9.721 1.027 14.473-.117 0 0 1.687.87 4.136 2.117l.093.049c1.467.753 3.227 1.643 5.05 2.557 4.89 2.445 10.268 5.134 12.317 5.941 4.073 1.638 4.747 10.008 4.747 10.008z"/>
        <path fill="#0056A8" d="M83.345 110.531c-1.438.001-2.87-.179-4.264-.538-1.667-.403-3.25-1.094-4.679-2.043-.07-.06-.116-.144-.127-.236-.012-.093.012-.185.067-.26.055-.075.136-.127.227-.145.09-.017.185 0 .263.049 1.366.902 2.876 1.563 4.465 1.956 3.734.936 7.677.57 11.176-1.037.09-.039.191-.04.282-.005.09.036.164.106.203.196.038.089.04.191.004.281-.035.091-.106.164-.195.203-2.337 1.039-4.865 1.577-7.422 1.579z"/>
        <path fill="#FFB8A1" d="M94.043 96.465c-.793 3.422-3.345 9.866-11.358 9.866-8.537 0-11.06-6.845-11.735-9.871 2.372-1.247 3.995-2.112 3.995-2.112l.489.117c4.77 1.066 9.72 1.026 14.472-.117 0 0 1.687.87 4.137 2.117zM62.629 115H49.144s.675-8.37 4.723-9.989c.836-.332 2.23-.978 3.912-1.814l.718-.352 1.335-.684c1.007 2.831 2.68 8.155 2.797 12.839zM102.76 115h13.485s-.675-8.37-4.723-9.989c-.841-.332-2.234-.978-3.912-1.814l-.713-.352-1.36-.684c-1.007 2.831-2.679 8.155-2.777 12.839z"/>
        <path fill="#FFB8A1" d="M90.244 96.059s-1.316 4.146-7.359 4.146c-7.05 0-8.713-3.755-8.713-3.755.555-1.455.996-2.95 1.32-4.474.405-1.833.595-3.706.568-5.583l12.384-.49c.118 1.047.303 2.284.49 3.526.581 3.286 1.31 6.63 1.31 6.63z"/>
        <path fill="#3F2037" d="M88.958 89.414c-1.922 1.335-6.117 3.32-13.465 2.548.404-1.833.594-3.707.567-5.584l12.384-.489c.137 1.047.303 2.284.514 3.525z"/>
        <path fill="#FFB8A1" d="M95.578 70.928s2.904-3.95 5.163-1.609c2.259 2.342-2.097 10.478-6.048 8.703l.885-7.094z"/>
        <path fill="#FFF7F1" d="M94.38 77.944c-1.222.591-2.184 1.61-2.706 2.863-.521 1.253-.565 2.654-.123 3.938.441 1.283 1.338 2.36 2.52 3.027 1.182.667 2.568.878 3.895.592 1.327-.286 2.503-1.048 3.306-2.142.803-1.094 1.177-2.445 1.052-3.796-.126-1.352-.742-2.61-1.733-3.538-.99-.928-2.287-1.46-3.644-1.497.02-.213.066-.423.137-.625 1.52.072 2.958.703 4.041 1.771 1.083 1.069 1.733 2.5 1.825 4.018.092 1.518-.38 3.017-1.325 4.209-.946 1.192-2.298 1.992-3.798 2.248-1.5.255-3.04-.052-4.327-.864-1.287-.81-2.229-2.069-2.644-3.532-.416-1.463-.277-3.028.39-4.395.668-1.367 1.817-2.439 3.227-3.01l-.093.733z"/>
        <path fill="#FF8A8A" d="M96.746 75.597c-.026-.003-.051-.012-.075-.026-.023-.013-.043-.031-.059-.053-.015-.021-.027-.046-.033-.072-.007-.025-.008-.052-.004-.079.31-1.85 1.283-3.524 2.738-4.708.043-.025.093-.033.14-.023.049.01.091.037.12.076.03.039.045.087.04.136-.003.049-.025.095-.06.129-1.36 1.13-2.274 2.707-2.582 4.449-.008.052-.036.099-.078.13-.042.032-.094.047-.147.041z"/>
        <path fill="#FF8A8A" d="M97.353 73.627c-.039 0-.076-.012-.108-.034-.022-.015-.04-.034-.055-.056-.014-.022-.025-.047-.03-.073-.005-.026-.004-.052 0-.078.006-.026.017-.05.031-.072.49-.71 1.77-.636 1.829-.63.053 0 .104.02.142.058.037.037.058.088.058.141 0 .054-.02.105-.058.142-.038.038-.089.059-.142.059-.313 0-1.183 0-1.467.455-.02.033-.05.059-.087.074-.035.016-.075.02-.113.014z"/>
        <path fill="#FFB8A1" d="M70.413 70.928s-2.905-3.97-5.163-1.609c-2.26 2.362 2.097 10.478 6.048 8.703l-.885-7.094z"/>
        <path fill="#FFF7F1" d="M71.195 77.225c1.415.573 2.568 1.648 3.239 3.019.67 1.37.811 2.941.394 4.41-.417 1.468-1.361 2.73-2.652 3.545-1.291.814-2.838 1.123-4.342.866-1.505-.256-2.862-1.06-3.81-2.255-.949-1.196-1.422-2.7-1.329-4.224.093-1.523.746-2.959 1.833-4.03 1.087-1.072 2.531-1.704 4.056-1.776.07.203.116.413.137.626-1.356.037-2.65.569-3.64 1.496-.99.927-1.606 2.184-1.731 3.535-.125 1.35.249 2.699 1.051 3.792.802 1.093 1.978 1.855 3.303 2.14 1.326.285 2.71.075 3.891-.591 1.181-.667 2.077-1.743 2.518-3.025.442-1.282.398-2.681-.123-3.933-.52-1.252-1.482-2.27-2.702-2.861l-.093-.734z"/>
        <path fill="#FFF7F1" d="M71.195 77.225c1.415.573 2.568 1.648 3.239 3.019.67 1.37.811 2.941.394 4.41-.417 1.468-1.361 2.73-2.652 3.545-1.291.814-2.838 1.123-4.342.866-1.505-.256-2.862-1.06-3.81-2.255-.949-1.196-1.422-2.7-1.329-4.224.093-1.523.746-2.959 1.833-4.03 1.087-1.072 2.531-1.704 4.056-1.776.07.203.116.413.137.626-1.356.037-2.65.569-3.64 1.496-.99.927-1.606 2.184-1.731 3.535-.125 1.35.249 2.699 1.051 3.792.802 1.093 1.978 1.855 3.303 2.14 1.326.285 2.71.075 3.891-.591 1.181-.667 2.077-1.743 2.518-3.025.442-1.282.398-2.681-.123-3.933-.52-1.252-1.482-2.27-2.702-2.861l-.093-.734z"/>
        <path fill="#FF8A8A" d="M69.244 75.597h.03c.025-.004.05-.013.073-.027.022-.014.042-.032.057-.053.016-.022.027-.046.033-.072.006-.025.007-.052.003-.078-.31-1.85-1.283-3.524-2.738-4.708-.043-.025-.093-.033-.14-.023-.049.01-.091.037-.12.076-.03.039-.045.087-.04.136.003.049.025.095.06.129 1.352 1.134 2.26 2.71 2.562 4.449.008.05.036.097.076.129.041.031.093.046.144.042z"/>
        <path fill="#FF8A8A" d="M68.638 73.627c.038 0 .076-.012.107-.034.022-.015.04-.034.055-.056s.025-.047.03-.073c.005-.026.005-.052 0-.078-.006-.026-.016-.05-.03-.072-.49-.71-1.77-.636-1.83-.63-.053.002-.102.026-.138.066-.035.04-.053.093-.05.146.004.053.028.103.068.138.04.035.092.053.145.05.313 0 1.183 0 1.467.455.019.029.045.052.076.067.03.016.065.023.1.02z"/>
        <path fill="#FFB8A1" d="M97.05 71.573c-.21 8.038-4.572 18.917-14.18 18.692-8.487-.2-12.712-8.253-13.729-15.602-.088-.62-.151-1.237-.19-1.838-.822-11.847 3.911-17.91 14.008-18.242h1.755c1.19.123 2.373.32 3.54.587 7.011 2.293 9.016 7.95 8.796 16.403z"/>
        <path fill="#FF8A8A" d="M78.099 76.39c0 .928-1.712 1.681-3.819 1.681s-3.823-.753-3.823-1.682c0-.929 1.71-1.677 3.823-1.677 2.112 0 3.819.753 3.819 1.677zM96.081 76.39c0 .928-1.71 1.681-3.818 1.681-2.107 0-3.824-.753-3.824-1.682 0-.929 1.712-1.677 3.824-1.677s3.818.753 3.818 1.677z" opacity=".5"/>
        <path fill="#3F2037" d="M77.38 61.824c-2.489.186-1.74 3.066-4.19 4.474-2.7 1.55-2.357 2.474-1.721 4.64.978 3.222-2.21 3.984-2.21 3.984l-.118-.259c-.088-.62-.151-1.237-.19-1.838-.807-11.847 3.007-18.75 14.022-18.242 1.37 5.188-2.268 6.997-5.593 7.241z"/>
        <path fill="#3F2037" d="M88.361 60.973c3.305-.054 2.151 3.369 4.102 4.943 2.416 1.956 3.208 1.12 2.147 4.308-1.1 3.3 2.053 4.698 2.053 4.698.04-.083.083-.17.123-.259.083-.62.146-1.237.19-1.838.817-11.847-3.188-18.721-14.013-18.242-1.369 5.187 2.059 6.439 5.398 6.39zM79.678 65.921c-1.296.03-4.127.377-5.378 2.733 0 0 2.933-1.388 5.378-1.242.11.007.22-.01.322-.051.102-.041.194-.104.269-.184.075-.08.132-.176.166-.28.034-.106.044-.216.03-.326-.024-.188-.12-.36-.265-.48-.147-.12-.333-.181-.522-.17z"/>
        <path fill="#3F2037" d="M86.86 65.921c1.296.03 4.127.377 5.379 2.733 0 0-2.934-1.388-5.379-1.242-.11.007-.22-.01-.322-.051-.102-.041-.194-.104-.269-.184-.075-.08-.132-.176-.166-.28-.033-.106-.044-.216-.03-.326.025-.188.12-.36.265-.48.147-.12.333-.181.522-.17z"/>
        <path fill="#FF8A8A" d="M83.648 79.406c-.52-.016-1.03-.137-1.501-.357-.068-.03-.125-.081-.163-.145-.039-.064-.057-.138-.052-.212l.782-5.916c.002-.051.015-.101.037-.147.023-.046.055-.086.094-.12.039-.032.085-.056.133-.07.05-.014.101-.018.152-.011.05.006.099.024.142.05.044.027.081.063.11.105.03.041.05.09.059.14.01.05.008.101-.003.15l-.724 5.609c.287.142.606.21.926.197.32-.013.632-.106.908-.27.04-.027.085-.046.132-.055.047-.01.096-.01.143 0 .047.01.092.029.132.056.04.026.074.06.101.101.027.04.045.085.055.133.009.047.009.095-.001.143-.01.047-.028.092-.055.132-.027.04-.062.074-.102.1-.384.262-.84.397-1.305.387zM82.924 83.298c-.303 0-.607-.017-.91-.05-1.007-.114-1.987-.407-2.894-.865-.081-.048-.141-.125-.167-.216-.027-.09-.017-.188.026-.273.046-.083.123-.144.215-.17.091-.028.19-.017.273.029.177.097 4.372 2.361 8-.978.068-.069.161-.107.259-.107.097 0 .19.038.259.107.034.034.062.074.08.118.02.045.029.093.029.141 0 .048-.01.096-.028.14-.02.045-.047.085-.081.12-1.364 1.297-3.178 2.016-5.06 2.004zM83.565 85.449c-.537-.001-1.072-.075-1.59-.22-.045-.014-.088-.038-.125-.069-.038-.031-.068-.069-.09-.112-.023-.043-.037-.09-.041-.138-.005-.048 0-.097.015-.143.014-.046.038-.09.069-.126.03-.038.069-.068.112-.09.043-.023.09-.037.138-.041.048-.005.097 0 .143.015 0 0 1.696.489 2.88-.157.084-.044.181-.054.273-.027.09.026.168.087.215.17.047.082.058.18.032.272-.025.091-.086.169-.168.216-.572.308-1.214.462-1.863.45z"/>
        <path fill="#3F2037" d="M78.617 71.554c0 1.026-.357 1.862-.841 1.872-.484.01-.89-.816-.93-1.838-.038-1.022.363-1.863.847-1.873.484-.01.91.817.924 1.839zM87.77 71.554c0 1.026.357 1.862.84 1.872.485.01.89-.816.91-1.838.02-1.022-.362-1.863-.846-1.873-.484-.01-.89.817-.904 1.839z"/>
    </g>
    <g clip-path="url(#clip2)">
        <path fill="#FF9A40" d="M124.986 100s-5.736-4.815-2.337-12.669c3.399-7.853 13.27-8.988 22.787-9.022 14.522 0 31.865 4.994 20.292 21.691 0 0-14.404 9.528-40.742 0z"/>
        <path fill="#E96D17" d="M139.307 90.59c-.092 0-.181-.03-.255-.085-.074-.054-.128-.131-.155-.218-1.062-3.287-3.995-5.349-4.023-5.371-.095-.066-.159-.166-.18-.28-.02-.113.005-.23.071-.324.065-.095.166-.16.279-.18.113-.02.23.005.324.07 1.995 1.467 3.51 3.493 4.354 5.82.021.056.029.114.026.173-.004.059-.019.116-.045.169-.026.052-.063.1-.108.137-.045.038-.097.066-.153.083-.045.01-.09.012-.135.006z"/>
        <path fill="#E96D17" d="M145.464 96.416c-.073 0-.144-.02-.208-.055s-.118-.086-.157-.148c-3.787-5.898-15.051-7.606-15.169-7.623-.056-.008-.11-.027-.16-.056-.049-.03-.091-.068-.126-.114-.034-.045-.059-.097-.073-.153-.014-.055-.017-.112-.009-.169.008-.056.028-.11.057-.16.029-.049.067-.091.113-.125.046-.035.097-.06.153-.074.055-.014.112-.017.169-.009.477.073 11.77 1.781 15.77 8.012.031.047.052.101.063.157.01.056.009.114-.003.17-.012.056-.035.109-.067.156-.033.047-.075.087-.123.118-.067.047-.148.072-.23.073z"/>
        <path fill="#FF9A40" d="M184.531 115h-77.078s.775-9.596 5.427-11.478c1.882-.752 6.179-2.893 10.674-5.185 6.247-3.197 12.803-6.68 13.483-7.034l.056-.033.59.135c.736.162 1.472.308 2.214.42.741.113 1.471.22 2.207.287 4.079.405 8.196.122 12.18-.837 0 0 5.056 2.601 10.674 5.427l2.18 1.124c4.966 2.489 9.944 4.921 11.972 5.73 4.646 1.848 5.421 11.444 5.421 11.444z"/>
        <path fill="#E96D17" d="M149.588 102.764c-3.542-.002-7.041-.769-10.259-2.247-2.31-1.026-4.438-2.423-6.298-4.135-.074-.075-.115-.176-.115-.28 0-.106.041-.207.115-.282.076-.072.177-.113.281-.113.105 0 .206.04.281.113 1.805 1.637 3.859 2.975 6.084 3.967 5.005 2.304 10.657 2.793 15.984 1.382.051-.014.105-.017.158-.009.053.007.103.025.149.052.046.027.086.063.118.106s.056.091.069.143c.013.051.016.105.009.158-.008.053-.026.103-.053.149s-.063.086-.105.118c-.043.032-.092.056-.143.069-2.049.534-4.158.806-6.275.809zM147.571 106.669c-1.511-.003-3.017-.161-4.495-.472-.052-.011-.102-.032-.146-.062s-.082-.068-.112-.113c-.029-.044-.05-.094-.06-.147-.01-.052-.01-.106.001-.159.011-.052.032-.102.061-.146.03-.044.069-.082.113-.112.045-.029.095-.05.147-.06.053-.01.107-.01.159.001 8.034 1.691 13.028-1.837 13.09-1.877.043-.031.092-.053.144-.065.051-.012.105-.014.157-.005.052.009.102.028.147.057.045.028.084.065.114.109.062.087.087.194.07.299-.016.106-.074.2-.16.263-.185.129-3.556 2.489-9.23 2.489z"/>
        <path fill="#FFB8A1" d="M154.683 93.236s-1.511 4.753-8.466 4.753c-8.101 0-10.006-4.32-10.006-4.32.634-1.666 1.141-3.376 1.517-5.118.461-2.107.678-4.26.646-6.416l14.23-.562c.135 1.202.349 2.624.59 4.05.646 3.77 1.489 7.613 1.489 7.613z"/>
        <path fill="#3F2037" d="M153.2 85.601c-2.208 1.534-7.028 3.815-15.466 2.927.461-2.107.677-4.26.646-6.416l14.23-.561c.135 1.202.348 2.623.59 4.05z"/>
        <path fill="#FFB8A1" d="M132.947 63.55s-4.404-5.994-7.831-2.443c-3.427 3.55 3.179 15.904 9.174 13.213l-1.343-10.77z"/>
        <path fill="#FF8A8A" d="M130.846 70.635c-.073 0-.144-.025-.2-.073-.056-.047-.093-.113-.103-.186-.562-4.168-3.888-6.741-3.933-6.741-.065-.048-.108-.12-.119-.2-.012-.08.009-.162.057-.227.049-.065.121-.108.201-.12.08-.011.161.01.226.058 2.209 1.8 3.687 4.342 4.158 7.152.006.04.004.08-.006.119-.009.039-.027.075-.051.107-.024.032-.054.059-.089.079-.035.02-.073.033-.113.038l-.028-.006z"/>
        <path fill="#FF8A8A" d="M129.925 67.646c-.051.001-.1-.01-.144-.034-.045-.024-.082-.058-.109-.1-.444-.652-1.764-.72-2.247-.692-.04.003-.08-.002-.118-.015-.038-.013-.073-.033-.103-.06-.03-.026-.054-.058-.072-.094-.017-.036-.028-.075-.03-.114-.003-.04.002-.08.015-.118.013-.038.033-.073.06-.103.026-.03.058-.054.094-.072.036-.017.074-.028.114-.03.085 0 2.051-.118 2.776.955.045.067.063.15.048.23-.015.08-.06.15-.127.197-.047.03-.101.048-.157.05z"/>
        <path fill="#FFB8A1" d="M159.779 63.55s4.404-5.994 7.831-2.443c3.427 3.55-3.18 15.904-9.174 13.213l1.343-10.77z"/>
        <path fill="#FF8A8A" d="M161.88 70.635h-.04c-.039-.005-.078-.018-.112-.038-.035-.02-.066-.046-.09-.078-.024-.032-.041-.069-.051-.108-.01-.039-.011-.08-.005-.119.47-2.81 1.948-5.352 4.157-7.151.065-.049.147-.07.227-.058.08.012.152.055.2.12.049.064.069.145.058.226-.012.08-.055.152-.12.2-.033 0-3.37 2.59-3.932 6.742-.009.071-.044.137-.097.186-.054.048-.123.076-.195.078z"/>
        <path fill="#FF8A8A" d="M162.801 67.646c-.06 0-.118-.018-.168-.05-.067-.047-.113-.118-.127-.198-.015-.08.002-.162.048-.23.725-1.072 2.691-.96 2.775-.955.04.003.079.014.115.031.036.018.068.042.094.072.026.03.046.065.059.103.013.038.018.078.016.118-.003.04-.013.078-.031.114-.017.036-.042.068-.072.094-.03.027-.065.047-.103.06-.037.013-.077.018-.117.015-.472 0-1.792.04-2.247.691-.026.041-.062.075-.104.098-.042.024-.09.036-.138.037z"/>
        <path fill="#FFB8A1" d="M150.076 46.073c-12.32-3.028-23.472 8.135-20.713 20.511 1.966 8.73 6.27 19.748 16.854 19.995 11.022.264 15.444-11.742 17.017-20.843.706-4.038-.062-8.195-2.163-11.714-2.102-3.52-5.397-6.167-9.287-7.46-.556-.18-1.123-.343-1.708-.489z"/>
        <path fill="#FF8A8A" d="M147.104 74.118c-.599-.018-1.188-.16-1.73-.416-.087-.035-.16-.099-.206-.18-.047-.082-.066-.176-.052-.27l.882-6.74c.007-.057.025-.112.053-.161.028-.05.065-.093.11-.128s.096-.06.151-.076c.055-.015.112-.02.169-.012.114.015.218.075.289.167.07.091.102.207.087.322l-.837 6.404c.325.163.687.24 1.05.226.364-.015.718-.122 1.029-.31.096-.063.214-.086.327-.064.113.022.214.087.28.182.064.096.088.214.066.328-.022.113-.089.213-.184.278-.438.297-.955.454-1.484.45zM146.295 78.579c-1.528-.01-3.034-.367-4.404-1.045-.094-.056-.163-.144-.194-.248-.031-.104-.022-.216.025-.314.055-.095.143-.165.248-.196.104-.031.217-.022.314.027.214.118 5.017 2.708 9.18-1.123.087-.053.19-.073.29-.058.101.016.192.066.259.142.067.077.105.175.108.276.002.102-.032.201-.095.28-1.55 1.46-3.602 2.268-5.731 2.259zM147.003 81.062c-.617-.002-1.232-.089-1.826-.259-.056-.016-.109-.044-.155-.082-.045-.037-.083-.084-.109-.137-.027-.052-.043-.11-.047-.169-.003-.059.005-.118.025-.174.017-.056.045-.108.083-.153.038-.045.085-.082.137-.109.052-.027.11-.043.168-.047.059-.004.118.004.174.023 0 0 1.944.562 3.297-.174.101-.057.22-.072.332-.041.111.03.206.104.264.204.028.05.046.104.052.161.007.057.002.114-.014.169-.015.055-.042.106-.077.15-.036.045-.08.082-.13.11-.666.362-1.415.544-2.174.528z"/>
        <path fill="#3F2037" d="M137.835 61.764c1.127-.631 2.352-1.072 3.623-1.303.168-.02.33-.078.472-.17.143-.091.263-.213.351-.358.089-.144.144-.306.161-.475.017-.168-.004-.338-.062-.497l-.051-.135c-.082-.238-.242-.442-.454-.579-.212-.136-.463-.198-.714-.174-1.186.124-3.281.562-4.652 1.905-.144.144-.245.325-.293.523-.049.198-.043.406.018.6.048.159.131.304.243.427.111.122.248.219.401.282.153.063.318.092.484.084.165-.008.327-.052.473-.13zM155.801 61.764c-1.128-.631-2.352-1.072-3.624-1.303-.167-.022-.328-.082-.47-.175-.141-.093-.26-.217-.347-.362-.087-.146-.14-.309-.155-.477-.015-.17.008-.34.068-.498l.051-.134c.084-.239.246-.442.461-.576.214-.135.467-.193.718-.166 1.186.124 3.281.562 4.652 1.904.143.145.245.326.293.524.049.198.043.406-.018.6-.047.162-.131.312-.244.437-.114.126-.254.224-.41.288-.157.063-.326.09-.495.08-.168-.01-.333-.059-.48-.142z"/>
        <path fill="#FF8A8A" d="M141.015 69.573c0 1.068-1.967 1.927-4.394 1.927s-4.393-.86-4.393-1.927c0-1.067 1.966-1.927 4.393-1.927 2.427 0 4.394.865 4.394 1.927zM161.677 69.573c0 1.068-1.966 1.927-4.393 1.927-2.427 0-4.393-.86-4.393-1.927 0-1.067 1.966-1.927 4.393-1.927 2.427 0 4.393.865 4.393 1.927z" opacity=".5"/>
        <path fill="#3F2037" d="M129.84 68.483s-2.314-12.747-1.601-15.663c.714-2.916 2.214-2.382 2.214-2.382s-12.483-10.202-6.276-16.034c4.495-4.196 9.663 4.787 9.663 4.787s-2.561-8.831 1.079-10.045c4.556-1.511 6.59 9.073 6.59 9.073s-.348-7.893 3.309-7.741c5.112.219 2.247 6.123 7.775 8.426 5.528 2.304 13.916 3.472 10.899 12.759 0 0 4.068-.174-.994 16.399-1.305-1.818-1.958-4.023-1.854-6.259.084-1.685.078-3.702-.276-4.92 0 0-3.168-2.214-3.022-5.45 0 0-11.163 6.623-21.455.719 0 0 .646 3.814-2.59 4.387-.746 1.931-1.22 3.956-1.41 6.017-.198 2.05-.872 4.026-1.966 5.77l-.085.157z"/>
        <path fill="#3F2037" d="M162.458 45.854s1.764-6.017 4.613-4.495c2.028 1.124-2.703 5.68-2.703 5.68s3.984-2.157 5.944-.635c1.961 1.523-3.247 3.31-6.253 2.81-3.005-.5-1.601-3.36-1.601-3.36zM141.318 65.084c0 1.174-.41 2.135-.966 2.146-.557.012-1.023-.938-1.045-2.112-.023-1.174.415-2.14.972-2.146.556-.006 1.022.932 1.039 2.112zM151.835 65.084c0 1.174.415 2.135.966 2.146.551.012 1.023-.938 1.045-2.112.022-1.174-.41-2.14-.966-2.146-.556-.006-1.045.932-1.045 2.112z"/>
        <path fill="#fff" d="M134.728 102.91V115h-.871v-12.09c.001-.093.031-.183.084-.258.057-.07.134-.12.22-.145.086-.025.177-.024.262.004.085.028.16.081.214.153.055.071.086.157.091.246zM158.868 102.91V115h-.853v-12.09c.001-.115.048-.225.13-.306.082-.081.193-.126.308-.126.091 0 .179.029.253.082.074.054.129.129.157.215.01.044.012.09.005.135z"/>
    </g>
    <defs>
        <clipPath id="clip0">
            <path fill="#fff" d="M0 0H71.933V72.74H0z" transform="translate(166.453 42)"/>
        </clipPath>
        <clipPath id="clip1">
            <path fill="#fff" d="M0 0H71.027V72H0z" transform="translate(48 43)"/>
        </clipPath>
        <clipPath id="clip2">
            <path fill="#fff" d="M0 0H77.079V86H0z" transform="translate(107.453 29)"/>
        </clipPath>
    </defs>
</svg>
