<svg xmlns="http://www.w3.org/2000/svg" width="100" height="100" fill="none" viewBox="0 0 100 100">
    <path fill="#000" d="M90.76 50.067c-.425 0-.833-.17-1.134-.47-.302-.302-.47-.71-.47-1.136V28.326H73.098c-.426 0-.835-.17-1.136-.47-.3-.301-.47-.71-.47-1.135 0-.426.17-.834.47-1.136.302-.3.71-.47 1.136-.47H90.76c.426 0 .834.17 1.135.47.301.302.47.71.47 1.136v21.743c0 .425-.17.833-.471 1.133-.301.3-.709.47-1.134.47zM90.76 92.55H16.098c-3.618-.004-7.088-1.444-9.646-4.002-2.56-2.559-3.998-6.028-4.002-9.647V17.886c0-.426.169-.834.47-1.135.3-.301.71-.47 1.135-.47.426 0 .834.169 1.135.47.301.301.47.71.47 1.135v61.016c.003 2.768 1.104 5.421 3.06 7.378 1.958 1.957 4.61 3.057 7.378 3.06h73.058V67.73c0-.426.17-.835.47-1.136.302-.3.71-.47 1.136-.47.426 0 .834.17 1.135.47.301.301.47.71.47 1.135v23.217c0 .425-.17.833-.47 1.134-.302.3-.71.47-1.135.47z"/>
    <path fill="#000" d="M94.34 69.335H73.354c-2.981 0-5.84-1.184-7.948-3.292-2.107-2.108-3.291-4.967-3.291-7.947 0-2.981 1.184-5.84 3.291-7.948 2.108-2.107 4.967-3.292 7.948-3.292H94.34c.85.002 1.667.34 2.269.942.602.602.94 1.418.941 2.27v16.056c0 .851-.34 1.667-.941 2.27-.602.601-1.418.94-2.27.94zm0-19.268H73.354c-2.13 0-4.172.846-5.677 2.352-1.506 1.505-2.352 3.547-2.352 5.677 0 2.129.846 4.17 2.352 5.677 1.505 1.505 3.547 2.351 5.677 2.351H94.34V50.067zM73.099 28.323H12.885c-2.768 0-5.422-1.1-7.38-3.057-1.957-1.957-3.056-4.611-3.056-7.38 0-2.767 1.1-5.422 3.056-7.379 1.958-1.957 4.612-3.057 7.38-3.057h58.602c.854.002 1.672.343 2.275.948s.942 1.424.942 2.278v16.042c0 .425-.17.834-.47 1.135-.301.301-.71.47-1.135.47zM12.885 10.661c-1.916 0-3.754.761-5.11 2.116-1.354 1.355-2.116 3.193-2.116 5.11 0 1.916.762 3.754 2.117 5.109s3.193 2.116 5.11 2.116h58.6V10.676l-58.6-.015z"/>
    <path fill="#000" d="M73.099 19.492H19.855c-.425 0-.834-.17-1.135-.47-.3-.302-.47-.71-.47-1.136 0-.426.17-.834.47-1.135.301-.301.71-.47 1.135-.47H73.1c.425 0 .834.169 1.135.47.3.301.47.71.47 1.135 0 .426-.17.834-.47 1.135-.301.301-.71.47-1.135.47zM74.768 63.051c-1.062 0-2.1-.315-2.981-.905-.883-.59-1.57-1.428-1.976-2.409-.406-.98-.512-2.06-.305-3.1.207-1.041.719-1.997 1.47-2.747.75-.75 1.706-1.261 2.747-1.468 1.041-.207 2.12-.1 3.1.306.981.406 1.82 1.094 2.409 1.977.589.883.903 1.92.903 2.981-.002 1.423-.568 2.787-1.574 3.793-1.006 1.006-2.37 1.571-3.793 1.572zm0-7.898c-.501 0-.991.147-1.408.425-.417.278-.742.673-.934 1.136-.192.462-.243.972-.145 1.463.097.491.338.943.692 1.297.354.355.805.596 1.296.695.491.098 1 .048 1.463-.144.463-.191.86-.515 1.138-.932.278-.416.427-.906.427-1.407 0-.67-.267-1.314-.74-1.79-.475-.474-1.118-.742-1.79-.743z"/>
    <path fill="#7367F0" fill-opacity=".41" d="M3 69h89v18.667c0 1.656-1.343 3-3 3H17c-7.732 0-14-6.268-14-14V69z"/>
</svg>
