<svg xmlns="http://www.w3.org/2000/svg" width="100" height="100" fill="none" viewBox="0 0 100 100">
    <path fill="#F3F5F9" d="M80.528 5.86L74.668 0H25.332l-5.86 5.86H6.056V42.5c0 26.367 17.754 50 43.125 57.265L50 100l.82-.235C76.191 92.5 93.945 68.867 93.945 42.5V5.86H80.528z"/>
    <path fill="#E1E6F0" d="M93.945 5.86V42.5c0 26.367-17.754 50-43.125 57.265L50 100V0h24.668l5.86 5.86h13.417z"/>
    <path fill="#5F5166" d="M88.086 11.719v30.78c0 23.497-15.644 44.61-38.086 51.407C27.558 87.11 11.914 65.996 11.914 42.5V11.719h10.02l5.86-5.86h44.413l5.86 5.86h10.019z"/>
    <path fill="#45354D" d="M88.086 11.719v30.78c0 23.497-15.644 44.61-38.086 51.407V5.86h22.207l5.86 5.86h10.019z"/>
    <path fill="#F3F5F9" d="M64.648 26.367v11.914H58.79V26.367c0-4.863-3.925-8.789-8.789-8.789s-8.79 3.926-8.79 8.79V38.28h-5.858V26.367c0-8.086 6.562-14.648 14.648-14.648 8.086 0 14.648 6.562 14.648 14.648z"/>
    <path fill="#E1E6F0" d="M64.648 26.367v11.914H58.79V26.367c0-4.863-3.925-8.789-8.789-8.789v-5.86c8.086 0 14.648 6.563 14.648 14.65z"/>
    <path fill="#FFDF40" d="M29.492 35.352v20.507c0 11.309 9.2 20.508 20.508 20.508 11.309 0 20.508-9.199 20.508-20.508V35.352H29.492z"/>
    <path fill="#FFBE40" d="M70.508 35.352v20.507c0 11.309-9.2 20.508-20.508 20.508V35.352h20.508z"/>
    <path fill="#5F5166" d="M47.07 47.07h5.86v17.578h-5.86V47.07z"/>
    <path fill="#45354D" d="M50 47.07h2.93v17.578H50V47.07z"/>
</svg>
