<svg xmlns="http://www.w3.org/2000/svg" width="150" height="150" fill="none" viewBox="0 0 150 150">
    <path fill="#78B9EB" d="M65.775 87.732c.145.185.285.375.425.568-.14-.193-.28-.382-.425-.568zM64.235 85.955c.102.105.192.217.292.325-.1-.108-.19-.22-.292-.325zM67.208 89.84c.09.153.19.3.277.455-.088-.155-.187-.295-.277-.455zM68.5 92.407c.067.168.122.343.187.5-.065-.157-.12-.332-.187-.5zM62.032 84.047c.158.12.323.235.478.358-.155-.125-.32-.237-.477-.358zM59.958 82.67c.202.115.4.25.6.362-.2-.123-.398-.245-.6-.363zM61.288 116.5c1.477-.93 2.862-1.995 4.14-3.185.352-.332.662-.712.917-1.125 1.37-2.21 2.383-4.622 3-7.148-1.217 4.665-4.077 8.736-8.057 11.458zM52.477 80.17c.238.028.47.07.703.108-.233-.028-.465-.08-.703-.108zM57.848 81.6c.087.038.167.085.25.123-.083-.038-.163-.085-.25-.123zM69.267 94.697c.066.235.126.47.183.708-.057-.238-.118-.473-.183-.708zM49.907 120c-.567 0-1.12-.057-1.674-.107.554.045 1.107.107 1.675.107zM55.06 119.33l-.3.077.3-.077zM69.81 97.382c.02.148.05.29.067.438-.017-.148-.047-.29-.067-.438zM47.408 119.83c-.81-.108-1.616-.258-2.408-.455.792.197 1.598.347 2.408.455zM52.585 119.815c-.115.015-.223.038-.338.051.113-.013.225-.036.338-.051zM60.962 116.72c-.355.233-.72.45-1.09.663.378-.2.728-.438 1.09-.663zM69.985 100.297c0 .218-.023.43-.033.645.01-.215.03-.442.033-.645zM69.775 102.848c-.043.295-.08.592-.135.882.053-.295.095-.587.135-.882zM54.97 80.647c.215.055.432.103.645.165-.213-.062-.43-.11-.645-.165z"/>
    <path fill="#7367F0" d="M7.5 110h2.75c2.073 0 3.925 1.285 4.655 3.225.285.75.593 1.487.923 2.212.865 1.89.467 4.118-1 5.59L12.875 123c-1.947 1.953-1.947 5.112 0 7.065l7.065 7.065c1.953 1.947 5.113 1.947 7.065 0l1.963-1.955c1.472-1.468 3.7-1.865 5.59-1 .725.332 1.462.64 2.212.922 1.94.728 3.228 2.58 3.23 4.653v2.75c0 2.763 2.238 5 5 5h10c2.763 0 5-2.237 5-5v-2.75c0-2.072 1.285-3.925 3.225-4.655.75-.285 1.488-.592 2.213-.922 1.89-.866 4.117-.468 5.59.999l1.963 1.955c1.952 1.948 5.112 1.948 7.064 0l7.066-7.065c1.947-1.952 1.947-5.112 0-7.064l-1.956-1.963c-1.467-1.473-1.865-3.7-1-5.59.333-.725.64-1.463.923-2.213.728-1.945 2.585-3.232 4.663-3.232h2.75c2.762 0 5-2.238 5-5V95c0-2.763-2.238-5-5-5h-2.75c-2.073 0-3.925-1.285-4.655-3.225-.285-.75-.593-1.488-.923-2.213-.867-1.89-.467-4.117 1-5.59l1.955-1.963c1.947-1.952 1.947-5.112 0-7.065l-7.066-7.065c-1.952-1.947-5.112-1.947-7.064 0l-1.963 1.956c-1.472 1.467-3.7 1.865-5.59 1-.725-.333-1.463-.64-2.213-.923C61.287 64.184 60 62.327 60 60.249V57.5c0-2.762-2.238-5-5-5H45c-2.762 0-5 2.237-5 5v2.75c0 2.073-1.285 3.925-3.225 4.655-.75.285-1.487.593-2.213.923-1.89.865-4.117.467-5.59-1L27 62.874c-1.953-1.947-5.113-1.947-7.065 0l-7.055 7.07c-1.948 1.953-1.948 5.113 0 7.065l1.955 1.963c1.467 1.472 1.867 3.7 1 5.59-.333.725-.64 1.462-.923 2.212-.73 1.943-2.587 3.228-4.662 3.225H7.5c-2.762 0-5 2.238-5 5V105c0 2.762 2.238 5 5 5zM45 80.625c1.635-.413 3.315-.623 5-.625.828.005 1.655.062 2.478.17.237.027.47.07.702.107.608.095 1.203.22 1.79.37.215.055.433.103.645.165.76.218 1.505.48 2.233.788.087.037.168.085.25.122.635.282 1.255.6 1.857.948.203.117.4.25.6.362.5.318 1 .657 1.475 1.015.158.12.323.233.478.358.602.484 1.18 1.002 1.725 1.55.102.105.192.217.292.325.44.462.858.947 1.25 1.452.145.185.285.375.425.567.358.5.695 1 1 1.54.09.153.19.3.278.456.38.682.717 1.39 1.015 2.112.067.168.122.34.187.5.22.583.415 1.175.58 1.78.066.235.126.47.183.708.153.652.273 1.312.36 1.978.02.147.05.29.067.437.083.727.128 1.457.13 2.19 0 .1 0 .197-.014.297 0 .213-.023.43-.033.645-.03.643-.088 1.278-.178 1.905-.04.295-.082.588-.135.883-.085.447-.195.882-.307 1.32-.618 2.525-1.63 4.937-3 7.147-.255.413-.565.793-.918 1.125-1.272 1.185-2.655 2.25-4.127 3.178l-.325.212c-.363.225-.725.463-1.09.663-1.513.857-3.13 1.51-4.813 1.947l-.3.078c-.718.175-1.443.312-2.175.407-.113.015-.225.038-.337.05-.745.09-1.498.138-2.248.143h-.092c-.568 0-1.12-.058-1.675-.108-.273-.025-.555-.022-.825-.057-.81-.108-1.616-.263-2.408-.46-10.7-2.768-17.133-13.685-14.365-24.385C32.458 87.945 37.958 82.447 45 80.625z"/>
    <path fill="#78B9EB" d="M67.485 90.295c.38.683.718 1.39 1.015 2.112-.297-.722-.635-1.43-1.015-2.112zM68.687 92.918c.22.582.416 1.175.58 1.78-.164-.605-.36-1.198-.58-1.78zM70 100c-.003-.728-.043-1.455-.123-2.18.088.822.123 1.65.108 2.477.015-.1.015-.197.015-.297zM69.45 95.405c.153.652.272 1.312.36 1.977-.088-.665-.207-1.325-.36-1.977zM53.18 80.278c.608.095 1.203.22 1.79.37-.587-.148-1.182-.275-1.79-.37zM50 80c.828.005 1.655.062 2.478.17-.823-.108-1.65-.165-2.478-.17zM58.1 81.723c.635.282 1.255.597 1.858.947-.603-.347-1.223-.665-1.858-.947zM55.615 80.813c.76.217 1.505.48 2.233.787-.728-.308-1.473-.57-2.233-.787zM66.2 88.3c.358.5.695 1 1 1.54-.305-.53-.642-1.045-1-1.54zM64.528 86.28c.437.462.854.947 1.25 1.452-.393-.504-.81-.99-1.25-1.452zM60.557 83.032c.5.318 1 .658 1.476 1.015-.478-.357-.968-.697-1.476-1.015zM62.5 84.405c.605.482 1.18 1 1.725 1.55-.545-.548-1.122-1.065-1.725-1.55zM59.873 117.382c-1.52.843-3.136 1.495-4.813 1.948 1.682-.438 3.3-1.09 4.813-1.948zM54.75 119.407c-.718.175-1.443.313-2.175.408.732-.095 1.457-.233 2.175-.408zM50 120c.753-.002 1.503-.047 2.25-.135-.777.09-1.557.133-2.34.13L50 120zM48.233 119.888c-.273-.025-.555-.023-.825-.058.27.035.552.033.825.058zM69.952 100.942c-.027.63-.09 1.265-.177 1.905.09-.627.147-1.262.177-1.905zM61.288 116.5c-.108.07-.215.145-.325.212l.325-.212zM69.64 103.73c-.08.437-.2.88-.308 1.32.113-.438.223-.872.308-1.32z"/>
    <path fill="#373737" d="M92.5 87.5h-2.75c-1.035.003-1.96-.642-2.315-1.615-.305-.8-.633-1.583-.985-2.358-.438-.942-.238-2.057.5-2.79l1.96-1.962c2.91-2.935 2.905-7.67-.013-10.598l-7.065-7.065c-2.932-2.915-7.667-2.915-10.6 0l-1.96 1.958c-.732.735-1.847.935-2.79.5-.774-.352-1.557-.68-2.36-1-.977-.352-1.624-1.282-1.622-2.32V57.5c0-4.143-3.357-7.5-7.5-7.5H45c-4.143 0-7.5 3.357-7.5 7.5v2.75c.003 1.035-.642 1.96-1.615 2.315-.8.305-1.583.633-2.358.985-.942.435-2.057.235-2.79-.5l-1.962-1.96c-2.933-2.912-7.665-2.912-10.598 0l-7.065 7.087c-2.915 2.933-2.915 7.668 0 10.6l1.958 1.96c.737.733.937 1.848.5 2.79-.352.775-.68 1.558-.988 2.36-.357.978-1.292 1.623-2.332 1.613H7.5C3.357 87.5 0 90.857 0 95v10c0 4.142 3.357 7.5 7.5 7.5h2.75c1.035-.003 1.96.642 2.315 1.615.305.8.633 1.583.985 2.358.438.942.238 2.057-.5 2.789l-1.96 1.963c-2.912 2.933-2.912 7.665 0 10.598l7.065 7.065c2.933 2.915 7.668 2.915 10.6 0l1.96-1.958c.732-.735 1.847-.935 2.79-.5.775.352 1.557.68 2.36 1 .982.347 1.637 1.277 1.635 2.32v2.75c0 4.142 3.357 7.5 7.5 7.5h10c4.142 0 7.5-3.358 7.5-7.5v-2.75c-.003-1.035.642-1.96 1.615-2.315.8-.305 1.582-.633 2.357-.985.943-.435 2.058-.235 2.79.5l1.963 1.96c2.935 2.907 7.667 2.902 10.597-.013l7.065-7.065c2.915-2.932 2.915-7.667 0-10.6l-1.957-1.96c-.738-.732-.938-1.847-.5-2.789.352-.775.68-1.558 1-2.36.352-.978 1.282-1.625 2.32-1.623h2.75c4.142 0 7.5-3.357 7.5-7.5V95c0-4.143-3.358-7.5-7.5-7.5zM95 105c0 1.38-1.12 2.5-2.5 2.5h-2.75c-3.107.012-5.89 1.932-7 4.835-.265.7-.552 1.39-.86 2.067-1.285 2.838-.69 6.173 1.5 8.39l1.955 1.958c.978.975.978 2.557.003 3.535l-.003.002-7.065 7.065c-.975.975-2.557.975-3.535 0l-1.96-1.957c-2.215-2.19-5.552-2.788-8.39-1.5-.677.307-1.367.595-2.062.86-2.9 1.11-4.82 3.89-4.833 6.995v2.75c0 1.379-1.12 2.5-2.5 2.5H45c-1.38 0-2.5-1.121-2.5-2.5v-2.75c-.013-3.108-1.932-5.891-4.835-7-.7-.266-1.39-.553-2.067-.86-2.838-1.285-6.173-.688-8.39 1.5l-1.958 1.955c-.975.977-2.558.977-3.535.002l-.003-.002-7.064-7.058c-.975-.975-.975-2.56 0-3.535l1.957-1.96c2.19-2.217 2.785-5.552 1.5-8.39-.307-.677-.595-1.367-.86-2.062-1.107-2.903-3.887-4.828-6.995-4.84H7.5c-1.38 0-2.5-1.121-2.5-2.5V95c0-1.38 1.12-2.5 2.5-2.5h2.75c3.108-.013 5.89-1.933 7-4.835.265-.7.552-1.39.86-2.068 1.285-2.837.69-6.172-1.5-8.39l-1.965-1.957c-.978-.975-.978-2.558-.003-3.535l.003-.003 7.065-7.065c.977-.975 2.557-.975 3.535 0l1.96 1.958c2.215 2.19 5.552 2.787 8.39 1.5.678-.308 1.367-.595 2.062-.86 2.905-1.107 4.828-3.887 4.843-6.995V57.5c0-1.38 1.12-2.5 2.5-2.5h10c1.38 0 2.5 1.12 2.5 2.5v2.75c.012 3.108 1.932 5.89 4.834 7 .7.265 1.39.552 2.068.86 2.837 1.287 6.175.69 8.39-1.5l1.957-1.955c.98-.97 2.558-.97 3.538 0l7.065 7.065c.975.975.975 2.56 0 3.535l-1.958 1.96c-2.19 2.217-2.785 5.552-1.5 8.39.308.677.595 1.367.86 2.062 1.11 2.9 3.89 4.82 6.995 4.833h2.75c1.38 0 2.5 1.12 2.5 2.5v10H95z"/>
    <path fill="#373737" d="M72.45 99c-.025-.6-.068-1.198-.14-1.793-.08-.64-.175-1.275-.308-1.897-.087-.408-.202-.81-.312-1.215-.14-.515-.298-1.022-.473-1.523-.122-.347-.25-.692-.38-1.035-.322-.8-.69-1.582-1.102-2.34-.033-.057-.053-.12-.085-.177-.65-1.158-1.403-2.255-2.25-3.278-.073-.09-.155-.175-.23-.262-.345-.408-.7-.803-1.073-1.18-.195-.203-.4-.393-.605-.588-.25-.232-.5-.462-.75-.682-.302-.263-.612-.518-.927-.765l-.41-.305C59.537 79.062 54.832 77.497 50 77.5c-.25 0-.5.037-.75.047-.533.015-1.068.046-1.605.1-.283.03-.568.063-.85.103-.815.107-1.623.257-2.423.453-12.037 3.11-19.275 15.39-16.165 27.43 2.05 7.932 8.248 14.125 16.183 16.167.04 0 .082.013.125.023.862.215 1.737.382 2.62.5.582.072 1.165.087 1.75.115.39.02.75.078 1.157.078.713 0 1.453-.048 2.208-.123.08 0 .16-.022.25-.032.607-.068 1.222-.158 1.85-.283.25-.047.482-.11.722-.165.44-.102.878-.21 1.328-.342.35-.105.69-.228 1.032-.348.343-.12.698-.25 1.053-.385s.652-.29.975-.44c.42-.192.837-.382 1.25-.607h.015c2.332-1.25 4.487-2.805 6.407-4.628.518-.485.97-1.035 1.34-1.64 1.953-3.127 3.233-6.627 3.765-10.275.07-.482.133-.965.17-1.457.035-.453.06-.903.07-1.353 0-.142.02-.277.02-.42.003-.353-.032-.678-.047-1.018zM45.607 83.05c1.435-.363 2.913-.548 4.393-.55.715.005 1.428.052 2.138.145.19.022.377.057.565.085.54.085 1.075.192 1.602.327.173.045.345.085.515.133 1.33.382 2.61.922 3.813 1.605.192.112.38.23.57.347.395.25.777.5 1.155.785.202.147.407.292.602.45.49.392.96.81 1.408 1.25.177.18.34.378.512.565.287.313.568.633.835.97.185.233.362.473.538.715.25.36.5.735.725 1.115.125.208.25.41.377.623.323.592.61 1.205.86 1.833.1.25.185.5.275.75.163.46.303.924.425 1.395.063.25.133.472.185.715.145.675.253 1.36.318 2.047.015.183.015.368.027.55.035.575.046 1.153.023 1.733 0 .207-.018.415-.03.62-.045.605-.122 1.21-.225 1.817-.935 5.198-4.162 9.698-8.785 12.25-.31.163-.615.315-.92.455l-.207.1c-1.453.66-2.985 1.122-4.56 1.38-.11.018-.223.037-.335.052-.313.046-.62.083-.925.11-.403.035-.807.055-1.22.063h-.522c-.593-.008-1.183-.043-1.77-.11l-.3-.035c-.688-.09-1.37-.217-2.043-.385-9.362-2.397-15.01-11.93-12.615-21.292 1.583-6.188 6.413-11.02 12.597-12.61v-.003z"/>
    <path fill="#7367F0" fill-opacity=".5" d="M142.5 52.5h-7.862c-1.048.01-1.988-.65-2.33-1.64-.775-2.322-1.713-4.588-2.808-6.778-.465-.945-.27-2.082.48-2.822l5.575-5.583c2.925-2.927 2.925-7.674 0-10.602l-10.63-10.613c-2.928-2.925-7.675-2.925-10.603 0l-5.572 5.57c-.737.75-1.875.946-2.82.483-2.19-1.1-4.455-2.042-6.78-2.822-.995-.34-1.66-1.28-1.65-2.33V7.5C97.5 3.357 94.143 0 90 0H75c-4.143 0-7.5 3.357-7.5 7.5v7.862c.01 1.048-.65 1.988-1.64 2.33-2.322.78-4.588 1.723-6.777 2.82-.946.465-2.086.273-2.823-.48l-5.582-5.574c-2.933-2.918-7.67-2.918-10.603 0l-10.61 10.61c-2.928 2.927-2.928 7.677 0 10.604l8.198 8.213c.992.96 2.575.935 3.535-.055.937-.968.94-2.503.005-3.475L33 32.145c-.975-.978-.975-2.558 0-3.535L43.61 18c.975-.975 2.56-.975 3.535 0l5.585 5.575c2.26 2.273 5.722 2.843 8.59 1.41 1.98-.992 4.027-1.842 6.127-2.547 3.03-1.025 5.065-3.875 5.053-7.075V7.5C72.5 6.12 73.62 5 75 5h15c1.38 0 2.5 1.12 2.5 2.5v7.862c-.013 3.2 2.022 6.048 5.052 7.073 2.1.705 4.15 1.557 6.13 2.55 2.868 1.425 6.325.855 8.588-1.412L117.855 18c.975-.975 2.56-.975 3.535 0l10.609 10.613c.975.974.975 2.557 0 3.532l-5.574 5.585c-2.27 2.26-2.84 5.723-1.411 8.59.993 1.98 1.843 4.028 2.548 6.128 1.025 3.03 3.875 5.067 7.075 5.052h7.863c1.38 0 2.5 1.12 2.5 2.5v15c0 1.38-1.12 2.5-2.5 2.5h-7.862c-3.2-.013-6.048 2.022-7.073 5.052-.705 2.1-1.557 4.15-2.55 6.13-1.428 2.868-.857 6.328 1.412 8.588l5.575 5.585c.975.975.975 2.56 0 3.535L121.387 117c-.975.975-2.557.975-3.532 0l-8.216-8.198c-.96-.992-2.542-1.017-3.534-.057-.993.96-1.018 2.542-.058 3.535.02.02.04.04.063.06l8.212 8.197c2.928 2.925 7.675 2.925 10.603 0l10.609-10.607c2.928-2.93 2.928-7.675 0-10.605l-5.567-5.575c-.75-.737-.945-1.875-.482-2.82 1.1-2.19 2.042-4.455 2.822-6.78.34-.995 1.28-1.66 2.33-1.65h7.863c4.143 0 7.5-3.357 7.5-7.5V60c0-4.143-3.357-7.5-7.5-7.5z"/>
    <path fill="#7367F0" fill-opacity=".5" d="M105.48 44.52c-12.7-12.672-33.26-12.672-45.96 0-.96.993-.933 2.575.062 3.535.97.935 2.505.935 3.473 0 10.667-10.81 28.08-10.927 38.89-.26 10.81 10.668 10.927 28.08.26 38.89-.088.088-.173.175-.26.26-.993.96-1.02 2.543-.06 3.535.96.993 2.542 1.02 3.535.06l.06-.06c12.673-12.7 12.673-33.26 0-45.96z"/>
</svg>
