<svg xmlns="http://www.w3.org/2000/svg" width="14" height="15" fill="none" viewBox="0 0 14 15">
    <g fill="#7367F0" clip-path="url(#clip0)">
        <path d="M11.5.98h-9C1.12.98.002 2.1 0 3.48v9c.002 1.38 1.12 2.498 2.5 2.5h9c1.38-.002 2.498-1.12 2.5-2.5v-9C13.998 2.1 12.88.98 11.5.98zm1.5 11.5c0 .828-.672 1.5-1.5 1.5h-9c-.828 0-1.5-.672-1.5-1.5v-9c0-.829.672-1.5 1.5-1.5h9c.828 0 1.5.671 1.5 1.5v9z"/>
        <path d="M9.5 7.48h-2v-2c0-.277-.224-.5-.5-.5s-.5.223-.5.5v2h-2c-.276 0-.5.223-.5.5 0 .276.224.5.5.5h2v2c0 .276.224.5.5.5s.5-.224.5-.5v-2h2c.276 0 .5-.224.5-.5 0-.277-.224-.5-.5-.5z"/>
    </g>
    <defs>
        <clipPath id="clip0">
            <path fill="#fff" d="M0 0H14V14H0z" transform="translate(0 .98)"/>
        </clipPath>
    </defs>
</svg>
