<svg width="512" height="512" viewBox="0 0 512 512" fill="none" xmlns="http://www.w3.org/2000/svg">
<path d="M255.668 480C211.551 480 175.668 444.117 175.668 400C175.668 391.168 182.836 384 191.668 384C200.5 384 207.668 391.168 207.668 400C207.668 426.477 229.191 448 255.668 448C282.141 448 303.668 426.477 303.668 400C303.668 391.168 310.836 384 319.668 384C328.5 384 335.668 391.168 335.668 400C335.668 444.117 299.785 480 255.668 480Z" fill="#373737"/>
<path d="M431.668 416H79.668C59.0781 416 42.332 399.254 42.332 378.668C42.332 367.742 47.0898 357.398 55.3906 350.293C87.8359 322.879 106.332 283.031 106.332 240.812V181.332C106.332 98.9883 173.32 32 255.668 32C338.012 32 405 98.9883 405 181.332V240.812C405 283.031 423.496 322.879 455.73 350.145C464.242 357.398 469 367.742 469 378.668C469 399.254 452.254 416 431.668 416ZM255.668 64C190.961 64 138.332 116.629 138.332 181.332V240.812C138.332 292.457 115.699 341.227 76.2539 374.57C75.5078 375.211 74.332 376.535 74.332 378.668C74.332 381.566 76.7656 384 79.668 384H431.668C434.566 384 437 381.566 437 378.668C437 376.535 435.828 375.211 435.121 374.613C395.633 341.227 373 292.457 373 240.812V181.332C373 116.629 320.371 64 255.668 64Z" fill="#373737"/>
</svg>
