<svg xmlns="http://www.w3.org/2000/svg" width="20" height="20" fill="none" viewBox="0 0 20 20">
    <path fill="#F5F5F5" d="M15.517 0H4.483v20h11.034V0z"/>
    <path fill="#FF4B55" d="M4.375 0C1.959 0 0 1.959 0 4.375v11.25C0 18.041 1.959 20 4.375 20h.108V0h-.108zM15.625 0h-.108v20h.108C18.04 20 20 18.041 20 15.625V4.375C20 1.959 18.04 0 15.625 0zM12.093 11.514l2.046-1.17-.47-.234c-.131-.066-.207-.208-.187-.354l.153-1.145-.867.252c-.191.055-.39-.062-.433-.257l-.083-.375-.813.952c-.113.132-.328.031-.298-.14l.347-2.02-.532.146c-.155.042-.32-.028-.395-.17l-.56-1.05v-.002.001l-.56 1.05c-.077.143-.24.213-.396.17l-.532-.145.348 2.02c.029.171-.186.272-.299.14l-.813-.952-.083.375c-.043.195-.242.312-.433.257l-.866-.252.152 1.145c.02.146-.055.288-.187.354l-.47.235 2.047 1.17c.211.12.304.377.219.606l-.175.468 1.753-.15c.097-.008.18.07.177.167l-.055 1.877h.345l-.056-1.877c-.002-.097.08-.175.177-.167l1.754.15-.175-.468c-.085-.229.008-.486.22-.607z"/>
</svg>
