<svg xmlns="http://www.w3.org/2000/svg" width="20" height="20" fill="none" viewBox="0 0 20 20">
    <path fill="#FF4B55" d="M15.625 0H4.375C1.959 0 0 1.959 0 4.375v11.25C0 18.041 1.959 20 4.375 20h11.25C18.041 20 20 18.041 20 15.625V4.375C20 1.959 18.041 0 15.625 0z"/>
    <path fill="#FFE15A" d="M4.454 3.405l.497 1.49 1.57.013c.204.001.288.26.125.382l-1.264.933.474 1.497c.061.194-.16.355-.325.236l-1.278-.913-1.278.913c-.165.119-.386-.042-.324-.236l.473-1.497-1.263-.933c-.164-.121-.08-.38.124-.382l1.57-.012.497-1.49c.065-.193.338-.193.402 0zM10.158 3.773l.356.486.575-.18c.075-.023.136.061.09.125l-.352.489.35.491c.044.064-.018.148-.092.125l-.574-.184-.36.483c-.046.063-.145.03-.146-.048l-.002-.602-.571-.193c-.074-.025-.074-.13 0-.154l.572-.189.007-.602c.001-.078.1-.11.147-.047zM7.988 2.324l.6.065.255-.545c.033-.071.137-.059.153.017l.123.59.598.075c.077.01.098.112.03.15l-.523.3.114.592c.015.076-.076.128-.134.075l-.446-.404-.528.29c-.068.039-.145-.032-.113-.104l.247-.55-.44-.41c-.057-.054-.013-.15.064-.14zM8.936 8.164l-.357.486-.575-.18c-.074-.023-.135.062-.09.125l.352.489-.349.491c-.045.064.017.148.091.125l.574-.184.36.484c.046.062.146.03.146-.049l.003-.602.57-.193c.075-.025.074-.13 0-.154l-.572-.188-.007-.603c0-.078-.1-.11-.146-.047zM11.105 6.803l-.6.065-.255-.546c-.033-.07-.137-.058-.153.018l-.123.59-.598.074c-.078.01-.098.112-.03.151l.523.3-.114.591c-.015.077.076.128.134.076l.446-.405.528.291c.068.038.145-.033.113-.104l-.247-.55.44-.411c.057-.054.013-.149-.064-.14z"/>
</svg>
