<svg xmlns="http://www.w3.org/2000/svg" width="20" height="20" fill="none" viewBox="0 0 20 20">
    <g clip-path="url(#clip0)">
        <path fill="#6CB44C" d="M14.653 4.653H13.02V.694c0-.383-.311-.694-.695-.694-.383 0-.694.31-.694.694v3.959H8.368V.694c0-.383-.31-.694-.695-.694-.383 0-.694.31-.694.694v3.959H5.347c-.383 0-.694.31-.694.694V10c0 2.713 2.031 4.959 4.653 5.3v4.006c0 .383.31.694.694.694.384 0 .694-.31.694-.694V15.3c2.622-.342 4.653-2.588 4.653-5.301V5.347c0-.383-.31-.694-.694-.694zM13.959 10c0 2.183-1.776 3.959-3.959 3.959S6.041 12.183 6.041 10V6.042h7.918V10z"/>
    </g>
    <defs>
        <clipPath id="clip0">
            <path fill="#fff" d="M0 0H20V20H0z"/>
        </clipPath>
    </defs>
</svg>
