<svg xmlns="http://www.w3.org/2000/svg" width="20" height="20" fill="none" viewBox="0 0 20 20">
    <path fill="#FAB446" d="M15.93.01H4.07C1.796.169 0 2.062 0 4.376V6.67h20V4.375C20 2.061 18.204.168 15.93.011z"/>
    <path fill="#73AF00" d="M0 15.625c0 2.314 1.796 4.207 4.07 4.364h11.86c2.274-.157 4.07-2.05 4.07-4.364V13.33H0v2.295z"/>
    <path fill="#F5F5F5" d="M20 6.67H0v6.66h20V6.67z"/>
    <path fill="#41479B" d="M10 12.283c-1.259 0-2.283-1.024-2.283-2.283S8.741 7.717 10 7.717c1.26 0 2.284 1.024 2.284 2.283S11.258 12.283 10 12.283zm0-4.141c-1.024 0-1.858.833-1.858 1.858 0 1.025.834 1.858 1.858 1.858 1.025 0 1.859-.833 1.859-1.858 0-1.025-.834-1.858-1.859-1.858z"/>
    <path fill="#41479B" d="M10 10.259c.143 0 .26-.116.26-.259 0-.143-.117-.259-.26-.259-.142 0-.258.116-.258.259 0 .143.116.259.258.259z"/>
    <path fill="#41479B" d="M10 10.039l-.657.066-1.413-.066V9.96l1.413-.066.657.066v.078zM10 10.039l.658.066 1.413-.066V9.96l-1.413-.066L10 9.96v.078z"/>
    <path fill="#41479B" d="M9.962 10l-.066-.658.066-1.413h.078l.066 1.413-.066.658h-.078zM9.962 10l-.066.658.066 1.413h.078l.066-1.413L10.04 10h-.078z"/>
    <path fill="#41479B" d="M9.973 10.027L9.46 9.61l-.952-1.046.055-.055 1.046.953.418.512-.054.054z"/>
    <path fill="#41479B" d="M9.973 10.027l.418.513 1.046.952.055-.055-.952-1.046-.512-.418-.055.054z"/>
    <path fill="#41479B" d="M9.973 9.973l.418-.513 1.046-.952.055.055-.952 1.046-.512.418-.055-.054zM9.973 9.973l-.513.418-.952 1.046.055.055 1.046-.952.418-.512-.054-.055z"/>
    <path fill="#41479B" d="M10.016 10.036l-.583.313-1.33.48-.03-.072 1.28-.602.633-.19.03.07z"/>
    <path fill="#41479B" d="M10.015 10.036l.634-.19 1.28-.603-.03-.071-1.33.48-.583.312.03.072z"/>
    <path fill="#41479B" d="M9.964 10.015l-.313-.582-.48-1.331.073-.03.602 1.28.19.633-.072.03zM9.965 10.015l.19.633.602 1.28.072-.03-.48-1.33-.312-.583-.072.03z"/>
    <path fill="#41479B" d="M9.986 10.036l-.633-.19-1.28-.603.03-.071 1.33.48.583.312-.03.072z"/>
    <path fill="#41479B" d="M9.986 10.036l.582.313 1.331.48.03-.072-1.28-.602-.633-.19-.03.07z"/>
    <path fill="#41479B" d="M9.965 9.985l.19-.633.602-1.28.072.03-.48 1.33-.312.583-.072-.03zM9.964 9.985l-.313.582-.48 1.331.073.03.602-1.28.19-.633-.072-.03z"/>
    <path fill="#F5F5F5" d="M10 10.284c.156 0 .283-.127.283-.284 0-.157-.127-.283-.283-.283-.157 0-.284.126-.284.283 0 .157.127.284.284.284z"/>
    <path fill="#41479B" d="M10 10.21c.116 0 .21-.094.21-.21 0-.116-.095-.21-.21-.21-.116 0-.21.094-.21.21 0 .116.094.21.21.21z"/>
</svg>
