<svg xmlns="http://www.w3.org/2000/svg" width="14" height="14" fill="none" viewBox="0 0 14 14">
    <path fill="#7367F0" d="M7 0C3.14 0 0 3.14 0 7s3.14 7 7 7 7-3.14 7-7-3.14-7-7-7zm0 13.079C3.648 13.079.921 10.352.921 7S3.648.921 7 .921 13.079 3.648 13.079 7 10.352 13.079 7 13.079z"/>
    <path fill="#7367F0" d="M7.46 6.587V3.97c.261.097.489.275.647.515.14.212.425.271.638.131.212-.14.271-.425.131-.638-.33-.502-.84-.843-1.416-.963v-.732c0-.255-.206-.46-.46-.46-.255 0-.46.205-.46.46v.73c-1.02.213-1.789 1.118-1.789 2.2 0 1.081.769 1.987 1.788 2.2v2.615c-.26-.097-.488-.275-.646-.515-.14-.212-.426-.271-.638-.131-.212.14-.271.425-.131.638.33.502.84.843 1.415.963v.732c0 .255.206.46.46.46.255 0 .461-.205.461-.46v-.73c1.02-.213 1.788-1.118 1.788-2.2 0-1.081-.768-1.987-1.788-2.2zM5.673 5.214c0-.57.361-1.055.866-1.242v2.484c-.505-.188-.866-.673-.866-1.242zm1.787 4.814V7.544c.505.188.867.673.867 1.242 0 .57-.362 1.055-.867 1.242z"/>
</svg>
