<svg xmlns="http://www.w3.org/2000/svg" width="14" height="15" fill="none" viewBox="0 0 14 15">
    <g clip-path="url(#clip0)">
        <path fill="#7367F0" d="M13.88 1.1c-.116-.115-.29-.151-.442-.09L.258 6.282c-.15.06-.251.204-.257.366-.006.162.085.313.23.383L5.43 9.552l2.52 5.197c.07.142.213.231.37.231h.014c.162-.006.306-.107.366-.257l5.272-13.18c.061-.152.025-.326-.09-.442zM1.425 6.699l10.462-4.184-6.235 6.235-4.227-2.05zm6.857 6.858l-2.05-4.227 6.235-6.235-4.185 10.462z"/>
    </g>
    <defs>
        <clipPath id="clip0">
            <path fill="#fff" d="M0 0H14V14H0z" transform="translate(0 .98)"/>
        </clipPath>
    </defs>
</svg>
