<svg xmlns="http://www.w3.org/2000/svg" width="20" height="20" fill="none" viewBox="0 0 20 20">
    <path fill="#F5F5F5" d="M20 4.615H0v1.538h20V4.615zM18.956 1.538H1.044c-.379.445-.67.967-.848 1.539h19.608c-.177-.572-.47-1.094-.848-1.539zM20 7.692H0V9.23h20V7.692zM20 10.77H0v1.537h20V10.77zM20 13.846H0v1.538h20v-1.538zM19.804 16.923H.196c.177.572.47 1.094.848 1.539h17.912c.379-.445.67-.967.848-1.539z"/>
    <path fill="#FF4B55" d="M15.625 0H4.375c-1.334 0-2.528.597-3.33 1.538h17.91C18.154.598 16.96 0 15.626 0zM20 6.154H0v1.538h20V6.154zM20 4.375c0-.452-.069-.888-.196-1.298H.196C.069 3.487 0 3.923 0 4.375v.24h20v-.24zM20 9.23H0v1.54h20V9.23zM20 15.625v-.24H0v.24c0 .452.069.888.196 1.298h19.608c.127-.41.196-.846.196-1.298zM18.956 18.462H1.044C1.847 19.402 3.041 20 4.375 20h11.25c1.334 0 2.528-.597 3.33-1.538zM20 12.308H0v1.538h20v-1.538z"/>
    <path fill="#41479B" d="M10.77 0H4.374C1.959 0 0 1.959 0 4.375v6.394h10.77V0z"/>
    <path fill="#F5F5F5" d="M1.162 1.682c-.01.032.027.06.054.04l.214-.153.213.153c.028.02.064-.008.054-.04l-.079-.25.211-.156c.027-.02.013-.063-.02-.064l-.263-.002-.045-.134c-.112.098-.22.202-.321.31l.061.046-.08.25zM1.463 3.037l.083.25.262.001c.034 0 .048.044.021.064l-.21.156.078.25c.01.032-.026.059-.054.04l-.213-.153-.214.152c-.027.02-.064-.007-.054-.04l.08-.25-.212-.155c-.027-.02-.013-.064.02-.064l.263-.002.083-.249c.01-.032.056-.032.067 0zM1.463 5.34l.083.248.262.002c.034 0 .048.044.021.064l-.21.156.078.25c.01.032-.026.059-.054.04l-.213-.153-.214.152c-.027.02-.064-.007-.054-.04l.08-.25-.212-.155c-.027-.02-.013-.064.02-.064l.263-.002.083-.249c.01-.032.056-.032.067 0zM1.463 7.454l.083.25.262.001c.034 0 .048.044.021.064l-.21.156.078.25c.01.032-.026.06-.054.04l-.213-.153-.214.152c-.027.02-.064-.007-.054-.039l.08-.25-.212-.156c-.027-.02-.013-.063.02-.064l.263-.002.083-.249c.01-.032.056-.032.067 0zM1.463 9.38l.083.248.262.002c.034 0 .048.044.021.064l-.21.156.078.25c.01.032-.026.059-.054.04l-.213-.153-.214.152c-.027.02-.064-.007-.054-.04l.08-.25-.212-.155c-.027-.02-.013-.064.02-.064l.263-.002.083-.249c.01-.032.056-.032.067 0zM2.473 1.945l.083.248.263.002c.034 0 .048.044.02.064l-.21.156.078.25c.01.032-.026.06-.054.04l-.213-.153-.214.152c-.027.02-.064-.007-.054-.039l.08-.25-.212-.156c-.027-.02-.013-.063.021-.064l.262-.002.083-.248c.011-.033.057-.033.067 0zM2.473 4.247l.083.248.263.003c.034 0 .048.043.02.063l-.21.156.078.25c.01.033-.026.06-.054.04l-.213-.153-.214.153c-.027.02-.064-.007-.054-.04l.08-.25-.212-.156c-.027-.02-.013-.063.021-.063l.262-.003.083-.248c.011-.033.057-.033.067 0zM2.473 6.434l.083.249.263.002c.034 0 .048.043.02.063l-.21.156.078.25c.01.033-.026.06-.054.04L2.44 7.04l-.214.153c-.027.02-.064-.007-.054-.04l.08-.25-.212-.156c-.027-.02-.013-.063.021-.063l.262-.002.083-.25c.011-.031.057-.031.067 0zM2.473 8.398l.083.249.263.002c.034 0 .048.043.02.064l-.21.155.078.25c.01.033-.026.06-.054.04l-.213-.153-.214.153c-.027.02-.064-.007-.054-.04l.08-.25-.212-.155c-.027-.02-.013-.064.021-.064l.262-.002.083-.25c.011-.031.057-.031.067 0zM3.484.962l.083.248.262.002c.034 0 .048.044.02.064l-.21.156.079.25c.01.033-.027.06-.055.04l-.213-.153-.213.153c-.028.02-.065-.007-.055-.04l.08-.25-.211-.156c-.028-.02-.014-.063.02-.064l.263-.002.082-.248c.011-.033.057-.033.068 0zM3.484 3.037l.083.25.262.001c.034 0 .048.044.02.064l-.21.156.079.25c.01.032-.027.059-.055.04l-.213-.153-.213.152c-.028.02-.065-.007-.055-.04l.08-.25-.211-.155c-.028-.02-.014-.064.02-.064l.263-.002.082-.249c.011-.032.057-.032.068 0zM3.484 5.34l.083.248.262.002c.034 0 .048.044.02.064l-.21.156.079.25c.01.032-.027.059-.055.04l-.213-.153-.213.152c-.028.02-.065-.007-.055-.04l.08-.25-.211-.155c-.028-.02-.014-.064.02-.064l.263-.002.082-.249c.011-.032.057-.032.068 0zM3.484 7.454l.083.25.262.001c.034 0 .048.044.02.064l-.21.156.079.25c.01.032-.027.06-.055.04l-.213-.153-.213.152c-.028.02-.065-.007-.055-.039l.08-.25-.211-.156c-.028-.02-.014-.063.02-.064l.263-.002.082-.249c.011-.032.057-.032.068 0zM3.484 9.38l.083.248.262.002c.034 0 .048.044.02.064l-.21.156.079.25c.01.032-.027.059-.055.04l-.213-.153-.213.152c-.028.02-.065-.007-.055-.04l.08-.25-.211-.155c-.028-.02-.014-.064.02-.064l.263-.002.082-.249c.011-.032.057-.032.068 0zM4.494 1.945l.083.248.262.002c.034 0 .048.044.02.064l-.21.156.079.25c.01.032-.027.06-.054.04l-.214-.153-.213.152c-.028.02-.065-.007-.054-.039l.079-.25-.211-.156c-.028-.02-.013-.063.02-.064l.263-.002.083-.248c.01-.033.056-.033.067 0zM4.494 4.247l.083.248.262.003c.034 0 .048.043.02.063l-.21.156.079.25c.01.033-.027.06-.054.04l-.214-.153-.213.153c-.028.02-.065-.007-.054-.04l.079-.25-.211-.156c-.028-.02-.013-.063.02-.063l.263-.003.083-.248c.01-.033.056-.033.067 0zM4.494 6.434l.083.249.262.002c.034 0 .048.043.02.063l-.21.156.079.25c.01.033-.027.06-.054.04L4.46 7.04l-.213.153c-.028.02-.065-.007-.054-.04l.079-.25-.211-.156c-.028-.02-.013-.063.02-.063l.263-.002.083-.25c.01-.031.056-.031.067 0zM4.494 8.398l.083.249.262.002c.034 0 .048.043.02.064l-.21.155.079.25c.01.033-.027.06-.054.04l-.214-.153-.213.153c-.028.02-.065-.007-.054-.04l.079-.25-.211-.155c-.028-.02-.013-.064.02-.064l.263-.002.083-.25c.01-.031.056-.031.067 0zM5.504.962l.083.248.262.002c.034 0 .048.044.021.064l-.21.156.078.25c.01.033-.026.06-.054.04l-.213-.153-.214.153c-.027.02-.064-.007-.054-.04l.079-.25-.211-.156c-.027-.02-.013-.063.02-.064l.263-.002.083-.248c.01-.033.056-.033.067 0zM5.504 3.037l.083.25.262.001c.034 0 .048.044.021.064l-.21.156.078.25c.01.032-.026.059-.054.04l-.213-.153-.214.152c-.027.02-.064-.007-.054-.04l.079-.25-.211-.155c-.027-.02-.013-.064.02-.064l.263-.002.083-.249c.01-.032.056-.032.067 0zM5.504 5.34l.083.248.262.002c.034 0 .048.044.021.064l-.21.156.078.25c.01.032-.026.059-.054.04l-.213-.153-.214.152c-.027.02-.064-.007-.054-.04l.079-.25-.211-.155c-.027-.02-.013-.064.02-.064l.263-.002.083-.249c.01-.032.056-.032.067 0zM5.504 7.454l.083.25.262.001c.034 0 .048.044.021.064l-.21.156.078.25c.01.032-.026.06-.054.04l-.213-.153-.214.152c-.027.02-.064-.007-.054-.039l.079-.25-.211-.156c-.027-.02-.013-.063.02-.064l.263-.002.083-.249c.01-.032.056-.032.067 0zM5.504 9.38l.083.248.262.002c.034 0 .048.044.021.064l-.21.156.078.25c.01.032-.026.059-.054.04l-.213-.153-.214.152c-.027.02-.064-.007-.054-.04l.079-.25-.211-.155c-.027-.02-.013-.064.02-.064l.263-.002.083-.249c.01-.032.056-.032.067 0zM6.514 1.945l.083.248.263.002c.034 0 .048.044.02.064l-.21.156.078.25c.01.032-.026.06-.054.04l-.213-.153-.214.152c-.027.02-.064-.007-.054-.039l.08-.25-.212-.156c-.027-.02-.013-.063.021-.064l.262-.002.083-.248c.011-.033.057-.033.067 0zM6.514 4.247l.083.248.263.003c.034 0 .048.043.02.063l-.21.156.078.25c.01.033-.026.06-.054.04l-.213-.153-.214.153c-.027.02-.064-.007-.054-.04l.08-.25-.212-.156c-.027-.02-.013-.063.021-.063l.262-.003.083-.248c.011-.033.057-.033.067 0zM6.514 6.434l.083.249.263.002c.034 0 .048.043.02.063l-.21.156.078.25c.01.033-.026.06-.054.04l-.213-.153-.214.153c-.027.02-.064-.007-.054-.04l.08-.25-.212-.156c-.027-.02-.013-.063.021-.063l.262-.002.083-.25c.011-.031.057-.031.067 0zM6.514 8.398l.083.249.263.002c.034 0 .048.043.02.064l-.21.155.078.25c.01.033-.026.06-.054.04l-.213-.153-.214.153c-.027.02-.064-.007-.054-.04l.08-.25-.212-.155c-.027-.02-.013-.064.021-.064l.262-.002.083-.25c.011-.031.057-.031.067 0zM7.525.962l.083.248.262.002c.034 0 .048.044.02.064l-.21.156.079.25c.01.033-.027.06-.054.04l-.214-.153-.213.153c-.028.02-.065-.007-.055-.04l.08-.25-.211-.156c-.028-.02-.014-.063.02-.064l.263-.002.083-.248c.01-.033.056-.033.067 0zM7.525 3.037l.083.25.262.001c.034 0 .048.044.02.064l-.21.156.079.25c.01.032-.027.059-.054.04l-.214-.153-.213.152c-.028.02-.065-.007-.055-.04l.08-.25-.211-.155c-.028-.02-.014-.064.02-.064l.263-.002.083-.249c.01-.032.056-.032.067 0zM7.525 5.34l.083.248.262.002c.034 0 .048.044.02.064l-.21.156.079.25c.01.032-.027.059-.054.04l-.214-.153-.213.152c-.028.02-.065-.007-.055-.04l.08-.25-.211-.155c-.028-.02-.014-.064.02-.064l.263-.002.083-.249c.01-.032.056-.032.067 0zM7.525 7.454l.083.25.262.001c.034 0 .048.044.02.064l-.21.156.079.25c.01.032-.027.06-.054.04l-.214-.153-.213.152c-.028.02-.065-.007-.055-.039l.08-.25-.211-.156c-.028-.02-.014-.063.02-.064l.263-.002.083-.249c.01-.032.056-.032.067 0zM7.525 9.38l.083.248.262.002c.034 0 .048.044.02.064l-.21.156.079.25c.01.032-.027.059-.054.04l-.214-.153-.213.152c-.028.02-.065-.007-.055-.04l.08-.25-.211-.155c-.028-.02-.014-.064.02-.064l.263-.002.083-.249c.01-.032.056-.032.067 0zM8.535 1.945l.083.248.262.002c.034 0 .048.044.02.064l-.21.156.079.25c.01.032-.027.06-.054.04L8.5 2.551l-.213.152c-.028.02-.065-.007-.054-.039l.079-.25-.211-.156c-.027-.02-.013-.063.02-.064l.263-.002.083-.248c.01-.033.056-.033.067 0zM8.535 4.247l.083.248.262.003c.034 0 .048.043.02.063l-.21.156.079.25c.01.033-.027.06-.054.04L8.5 4.854l-.213.153c-.028.02-.065-.007-.054-.04l.079-.25-.211-.156c-.027-.02-.013-.063.02-.063l.263-.003.083-.248c.01-.033.056-.033.067 0zM8.535 6.434l.083.249.262.002c.034 0 .048.043.02.063l-.21.156.079.25c.01.033-.027.06-.054.04L8.5 7.04l-.213.153c-.028.02-.065-.007-.054-.04l.079-.25-.211-.156c-.027-.02-.013-.063.02-.063l.263-.002.083-.25c.01-.031.056-.031.067 0zM8.535 8.398l.083.249.262.002c.034 0 .048.043.02.064l-.21.155.079.25c.01.033-.027.06-.054.04L8.5 9.005l-.213.153c-.028.02-.065-.007-.054-.04l.079-.25-.211-.155c-.027-.02-.013-.064.02-.064l.263-.002.083-.25c.01-.031.056-.031.067 0zM9.545.962l.083.248.262.002c.034 0 .049.044.021.064l-.21.156.078.25c.01.033-.026.06-.054.04l-.213-.153-.214.153c-.027.02-.064-.007-.054-.04l.08-.25-.212-.156c-.027-.02-.013-.063.02-.064l.263-.002.083-.248c.01-.033.056-.033.067 0zM9.545 3.037l.083.25.262.001c.034 0 .049.044.021.064l-.21.156.078.25c.01.032-.026.059-.054.04l-.213-.153-.214.152c-.027.02-.064-.007-.054-.04l.08-.25-.212-.155c-.027-.02-.013-.064.02-.064l.263-.002.083-.249c.01-.032.056-.032.067 0zM9.545 5.34l.083.248.262.002c.034 0 .049.044.021.064l-.21.156.078.25c.01.032-.026.059-.054.04l-.213-.153-.214.152c-.027.02-.064-.007-.054-.04l.08-.25-.212-.155c-.027-.02-.013-.064.02-.064l.263-.002.083-.249c.01-.032.056-.032.067 0zM9.545 7.454l.083.25.262.001c.034 0 .049.044.021.064l-.21.156.078.25c.01.032-.026.06-.054.04l-.213-.153-.214.152c-.027.02-.064-.007-.054-.039l.08-.25-.212-.156c-.027-.02-.013-.063.02-.064l.263-.002.083-.249c.01-.032.056-.032.067 0zM9.545 9.38l.083.248.262.002c.034 0 .049.044.021.064l-.21.156.078.25c.01.032-.026.059-.054.04l-.213-.153-.214.152c-.027.02-.064-.007-.054-.04l.08-.25-.212-.155c-.027-.02-.013-.064.02-.064l.263-.002.083-.249c.01-.032.056-.032.067 0z"/>
</svg>
