<svg xmlns="http://www.w3.org/2000/svg" width="100" height="100" fill="none" viewBox="0 0 100 100">
    <g clip-path="url(#clip0)">
        <path fill="#AAA" d="M80.435 34.783c-5.991 0-10.87 4.878-10.87 10.87 0 5.99 4.879 10.869 10.87 10.869s10.87-4.878 10.87-10.87c0-5.991-4.879-10.87-10.87-10.87zm0 17.391c-3.596 0-6.522-2.926-6.522-6.522s2.926-6.522 6.522-6.522 6.522 2.926 6.522 6.522-2.926 6.522-6.522 6.522zM19.875 34.783c-5.996 0-10.87 4.878-10.87 10.87 0 5.99 4.878 10.869 10.87 10.869 5.99 0 10.869-4.878 10.869-10.87 0-5.991-4.874-10.87-10.87-10.87zm0 17.391c-3.596 0-6.522-2.926-6.522-6.522s2.926-6.522 6.522-6.522c3.595 0 6.521 2.926 6.521 6.522s-2.926 6.522-6.521 6.522zM80.435 60.87c-3.578 0-7.082.978-10.134 2.826-1.022.626-1.353 1.96-.73 2.987.63 1.026 1.96 1.352 2.986.73 2.37-1.44 5.091-2.196 7.878-2.196 8.392 0 15.218 6.826 15.218 15.218 0 1.2.974 2.174 2.174 2.174S100 81.635 100 80.435c0-10.787-8.779-19.566-19.566-19.566zM29.696 63.691c-3.048-1.843-6.552-2.822-10.13-2.822C8.777 60.87 0 69.648 0 80.436c0 1.2.974 2.174 2.174 2.174s2.174-.974 2.174-2.174c0-8.392 6.826-15.218 15.217-15.218 2.787 0 5.509.757 7.874 2.192 1.022.621 2.361.295 2.987-.73.626-1.027.296-2.362-.73-2.988z"/>
        <path fill="#7367F0" d="M50 17.391c-8.391 0-15.218 6.826-15.218 15.218C34.782 41 41.608 47.826 50 47.826c8.391 0 15.217-6.826 15.217-15.217 0-8.392-6.826-15.218-15.217-15.218zm0 26.087c-5.991 0-10.87-4.878-10.87-10.87 0-5.99 4.879-10.869 10.87-10.869s10.87 4.878 10.87 10.87c0 5.99-4.879 10.869-10.87 10.869zM50 52.174c-15.583 0-28.261 12.678-28.261 28.26 0 1.2.974 2.175 2.174 2.175s2.174-.974 2.174-2.174c0-13.187 10.726-23.913 23.913-23.913s23.913 10.726 23.913 23.913c0 1.2.974 2.174 2.174 2.174s2.174-.974 2.174-2.174c0-15.583-12.678-28.26-28.261-28.26z"/>
    </g>
    <defs>
        <clipPath id="clip0">
            <path fill="#fff" d="M0 0H100V100H0z"/>
        </clipPath>
    </defs>
</svg>
