<svg xmlns="http://www.w3.org/2000/svg" width="14" height="14" fill="none" viewBox="0 0 14 14">
    <g fill="#8B8B8B" clip-path="url(#clip0)">
        <path d="M9.47 14H2.178c-.885 0-1.604-.72-1.604-1.604V4.521c0-.885.72-1.604 1.604-1.604h.292c.242 0 .438.196.438.437 0 .242-.196.438-.438.438h-.292c-.402 0-.729.327-.729.729v7.875c0 .402.327.73.73.73H9.47c.402 0 .73-.328.73-.73v-.292c0-.241.195-.437.437-.437.241 0 .437.196.437.437v.292c0 .885-.72 1.604-1.604 1.604z"/>
        <path d="M11.803 10.5H5.678c-.885 0-1.604-.72-1.604-1.604V1.604C4.074.72 4.794 0 5.678 0h6.125c.885 0 1.604.72 1.604 1.604v7.292c0 .885-.719 1.604-1.604 1.604zM5.678.875c-.402 0-.729.327-.729.73v7.29c0 .403.327.73.73.73h6.124c.402 0 .73-.327.73-.73v-7.29c0-.403-.328-.73-.73-.73H5.678z"/>
    </g>
    <defs>
        <clipPath id="clip0">
            <path fill="#fff" d="M0 0H14V14H0z"/>
        </clipPath>
    </defs>
</svg>
