<svg xmlns="http://www.w3.org/2000/svg" width="10" height="10" fill="none" viewBox="0 0 10 10">
    <g clip-path="url(#clip0)">
        <path fill="#373737" d="M4.705 8.212l.031.027.015.011c.006.005.012.01.018.013l.018.011.017.01.019.01.018.008.018.007.02.007.019.004.02.005.023.004.018.002c.027.003.055.003.082 0l.018-.002.022-.004c.007 0 .014-.003.021-.005l.02-.004.019-.007.019-.007.018-.009.018-.009.017-.01.018-.01.018-.014.015-.01.03-.028 2.917-2.917c.163-.163.163-.427 0-.59-.162-.162-.426-.162-.589 0L5.417 6.912V.417C5.417.187 5.23 0 5 0c-.23 0-.417.187-.417.417V6.91L2.378 4.706c-.163-.163-.427-.163-.59 0-.162.162-.162.426 0 .589l2.917 2.917zM7.917 9.167H2.084c-.23 0-.417.186-.417.417 0 .23.187.416.417.416h5.833c.23 0 .417-.186.417-.416 0-.23-.187-.417-.417-.417z"/>
    </g>
    <defs>
        <clipPath id="clip0">
            <path fill="#fff" d="M0 0H10V10H0z"/>
        </clipPath>
    </defs>
</svg>
