<svg xmlns="http://www.w3.org/2000/svg" width="14" height="14" fill="none" viewBox="0 0 14 14">
    <g fill="#8B8B8B" clip-path="url(#clip0)">
        <path d="M13.364 0H8.273c-.352 0-.637.285-.637.636 0 .352.285.637.637.637h3.555l-6.55 6.55c-.25.248-.25.651 0 .9.124.124.287.186.45.186.162 0 .325-.062.45-.186l6.55-6.55v3.554c0 .352.284.637.636.637.351 0 .636-.285.636-.637V.637C14 .284 13.715 0 13.364 0z"/>
        <path d="M10.818 6.364c-.351 0-.636.285-.636.636v5.727h-8.91V3.818H7c.351 0 .636-.285.636-.636 0-.351-.285-.636-.636-.636H.636c-.351 0-.636.285-.636.636v10.182c0 .351.285.636.636.636h10.182c.352 0 .637-.285.637-.636V7c0-.351-.285-.636-.637-.636z"/>
    </g>
    <defs>
        <clipPath id="clip0">
            <path fill="#fff" d="M0 0H14V14H0z"/>
        </clipPath>
    </defs>
</svg>
