<svg xmlns="http://www.w3.org/2000/svg" width="10" height="10" fill="none" viewBox="0 0 10 10">
    <g clip-path="url(#clip0)">
        <path fill="#FF4660" d="M8.83.318H6.362C6.345.139 6.195 0 6.012 0H3.988c-.183 0-.333.14-.35.318H1.17C.976.318.818.476.818.67v.67c0 .195.158.353.353.353h7.658c.195 0 .353-.158.353-.353v-.67c0-.195-.158-.353-.353-.353zM1.558 2.372v7.275c0 .195.158.353.353.353h6.178c.195 0 .353-.158.353-.353V2.372H1.558zm2.584 5.46c0 .215-.175.39-.39.39-.214 0-.388-.175-.388-.39V3.975c0-.215.174-.389.389-.389.214 0 .389.174.389.39v3.856zm2.494 0c0 .215-.174.39-.389.39-.215 0-.389-.175-.389-.39V3.975c0-.215.174-.389.39-.389.214 0 .388.174.388.39v3.856z"/>
    </g>
    <defs>
        <clipPath id="clip0">
            <path fill="#fff" d="M0 0H10V10H0z"/>
        </clipPath>
    </defs>
</svg>
