<svg xmlns="http://www.w3.org/2000/svg" width="30" height="30" fill="none" viewBox="0 0 30 30">
    <path fill="#6CB44C" d="M29.143 4.101c-.442-.442-1.158-.443-1.6-.002L13.98 17.628l-4.894-5.316c-.423-.459-1.138-.488-1.598-.066-.46.423-.488 1.139-.066 1.598l5.691 6.18c.209.227.5.359.808.365h.024c.299 0 .587-.118.798-.33L29.14 5.7c.443-.44.444-1.157.003-1.599z"/>
    <path fill="#6CB44C" d="M28.87 13.87c-.625 0-1.131.505-1.131 1.13 0 7.024-5.715 12.739-12.739 12.739-7.024 0-12.739-5.715-12.739-12.739C2.261 7.976 7.976 2.261 15 2.261c.624 0 1.13-.506 1.13-1.13C16.13.506 15.626 0 15 0 6.729 0 0 6.729 0 15c0 8.27 6.729 15 15 15 8.27 0 15-6.73 15-15 0-.624-.506-1.13-1.13-1.13z"/>
</svg>
